<svg height='100px' width='100px'  fill="#000000" xmlns:dc="http://purl.org/dc/elements/1.1/" xmlns:cc="http://creativecommons.org/ns#" xmlns:rdf="http://www.w3.org/1999/02/22-rdf-syntax-ns#" xmlns:svg="http://www.w3.org/2000/svg" xmlns="http://www.w3.org/2000/svg" xmlns:sodipodi="http://sodipodi.sourceforge.net/DTD/sodipodi-0.dtd" xmlns:inkscape="http://www.inkscape.org/namespaces/inkscape" version="1.1" x="0px" y="0px" viewBox="0 0 100 100"><g transform="translate(0,-952.36218)"><path style="text-indent:0;text-transform:none;direction:ltr;block-progression:tb;baseline-shift:baseline;color:#000000;enable-background:accumulate;" d="m 23.900495,973.04469 c -6.635067,6.635 -6.635056,17.4066 2.6e-5,24.0417 l 36.062441,36.06241 c 4.676382,4.6764 12.294184,4.6764 16.97056,0 4.676384,-4.6764 4.676382,-12.2942 6e-6,-16.9706 l -36.06248,-36.06251 c -2.717664,-2.7176 -7.181783,-2.7176 -9.899463,10e-5 -2.717706,2.7177 -2.717737,7.1817 2e-6,9.8995 l 31.112694,31.11271 a 2.0001999,2.0001999 0 1 0 2.828427,-2.8285 L 33.799983,987.18679 c -1.199681,-1.1997 -1.199653,-3.0429 2.7e-5,-4.2426 1.199631,-1.1998 3.042963,-1.1996 4.242643,0 l 36.062444,36.06241 c 3.158364,3.1584 3.158363,8.1554 0,11.3138 -3.158365,3.1583 -8.155345,3.1583 -11.313707,0 L 26.728943,994.25789 c -5.11705,-5.117 -5.117064,-13.2678 -2.2e-5,-18.3848 5.117041,-5.117 13.267747,-5.117 18.384797,10e-5 L 77.64063,1008.4 a 2.0001999,2.0001999 0 1 0 2.828431,-2.8284 L 47.942113,973.04459 c -6.635083,-6.6351 -17.406552,-6.635 -24.041618,10e-5 z" fill="#000000" fill-opacity="1" stroke="none" marker="none" visibility="visible" display="inline" overflow="visible"></path></g></svg>