<svg height='100px' width='100px'  fill="#000000" xmlns="http://www.w3.org/2000/svg" xmlns:xlink="http://www.w3.org/1999/xlink" version="1.1" x="0px" y="0px" viewBox="0 0 100 100" enable-background="new 0 0 100 100" xml:space="preserve"><g><path d="M83.752,83.031H16.248c-5.725,0-10.382-4.656-10.382-10.381V41.192c0-0.829,0.671-1.5,1.5-1.5s1.5,0.671,1.5,1.5V72.65   c0,4.07,3.312,7.381,7.382,7.381h67.504c4.07,0,7.383-3.311,7.383-7.381v-45.3c0-4.071-3.313-7.382-7.383-7.382H16.139   c-0.071,0.009-0.145,0.012-0.218,0.01l-0.351-0.01c-1.689-0.03-3.386,0.68-4.608,1.902c-1.227,1.227-1.902,2.857-1.902,4.592   s0.675,3.365,1.902,4.591l34.269,34.269c1.223,1.223,2.852,1.896,4.587,1.896c0.003,0,0.006,0,0.009,0   c1.739-0.002,3.374-0.68,4.6-1.908l24.037-24.035c2.533-2.532,2.533-6.652,0.002-9.184c-2.533-2.532-6.652-2.532-9.186,0   L51.018,50.356c-0.586,0.585-1.536,0.585-2.122,0s-0.586-1.535,0-2.121L67.16,29.971c3.703-3.703,9.727-3.701,13.428,0   s3.699,9.724-0.002,13.426L56.549,67.432c-1.793,1.793-4.178,2.783-6.717,2.787c-0.004,0-0.009,0-0.014,0   c-2.537,0-4.918-0.986-6.708-2.775L8.841,33.175c-1.793-1.793-2.781-4.177-2.781-6.713c0-2.536,0.987-4.92,2.781-6.713   c1.782-1.782,4.208-2.781,6.719-2.781c0.009,0,0.019,0,0.029,0h68.164c5.725,0,10.383,4.658,10.383,10.382v45.3   C94.135,78.375,89.477,83.031,83.752,83.031z"></path></g></svg>