<svg height='100px' width='100px'  fill="#000000" xmlns="http://www.w3.org/2000/svg" xmlns:xlink="http://www.w3.org/1999/xlink" version="1.1" x="0px" y="0px" viewBox="0 0 100 100" style="enable-background:new 0 0 100 100;" xml:space="preserve"><title>58</title><desc>Created with Sketch.</desc><path d="M77.7,75L20,75c-0.2,0-0.3,0-0.5,0C11.5,75,5,68.5,5,60.5c0-6.1,3.8-11.6,9.5-13.6C14.2,45.4,14,44,14,42.5  C14,32.9,21.9,25,31.5,25c1.9,0,3.8,0.3,5.6,0.9v0C41.7,19.1,49.3,15,57.5,15C71,15,82,26,82,39.5c0,0.4,0,0.7,0,1.1v0  c7.7,2,13,9,13,16.9C95,67,87.5,74.7,78,75L77.7,75z M25,70l52.9,0C84.7,69.8,90,64.3,90,57.5c0-5.7-3.8-10.6-9.3-12.1l-3.9-1l0.2-4  c0-0.3,0-0.6,0-0.9C77,28.7,68.3,20,57.5,20c-6.5,0-12.6,3.2-16.2,8.7l-2.1,3.2l-3.6-1.2c-1.3-0.4-2.6-0.7-4-0.7  C24.6,30,19,35.6,19,42.5c0,1.1,0.1,2.1,0.4,3.1l1.1,4.4l-4.3,1.5c-3.7,1.4-6.3,4.9-6.3,8.9c0,5.2,4.3,9.5,9.5,9.5  c0.1,0,0.2,0,0.3,0L25,70L25,70z"></path></svg>