<svg height='100px' width='100px'  fill="#000000" xmlns:dc="http://purl.org/dc/elements/1.1/" xmlns:cc="http://creativecommons.org/ns#" xmlns:rdf="http://www.w3.org/1999/02/22-rdf-syntax-ns#" xmlns:svg="http://www.w3.org/2000/svg" xmlns="http://www.w3.org/2000/svg" xmlns:sodipodi="http://sodipodi.sourceforge.net/DTD/sodipodi-0.dtd" xmlns:inkscape="http://www.inkscape.org/namespaces/inkscape" version="1.1" x="0px" y="0px" viewBox="0 0 100 100"><g transform="translate(0,-952.36218)"><path style="font-size:medium;font-style:normal;font-variant:normal;font-weight:normal;font-stretch:normal;text-indent:0;text-align:start;text-decoration:none;line-height:normal;letter-spacing:normal;word-spacing:normal;text-transform:none;direction:ltr;block-progression:tb;writing-mode:lr-tb;text-anchor:start;baseline-shift:baseline;opacity:1;color:#000000;fill:#000000;fill-opacity:1;stroke:none;stroke-width:6;marker:none;visibility:visible;display:inline;overflow:visible;enable-background:accumulate;font-family:Sans;-inkscape-font-specification:Sans" d="M 45,21 C 33.969337,21 24.721757,28.83649 22.5,39.25 12.659104,40.49474 5,48.8267 5,59 5,70.0281 13.971892,79 25,79 l 9,0 c 1.584938,0.02241 3.042726,-1.414904 3.042726,-3 0,-1.585096 -1.457788,-3.022415 -3.042726,-3 l -9,0 C 17.192108,73 11,66.8079 11,59 11,51.1921 17.192115,45 25,45 26.481273,45.0064 27.861009,43.756002 28,42.28125 28.856901,33.70946 36.158083,27 45,27 c 4.82246,0 8.697135,1.82479 11.84375,5.0625 0.809576,0.836245 2.130345,1.131174 3.21875,0.71875 C 61.346571,32.29372 63.33056,32 65,32 c 6.688584,0 12.253229,4.93992 13.03125,11.34375 0.126376,1.093542 0.905332,2.086083 1.9375,2.46875 C 85.291758,47.7666 89,52.8801 89,59 89,66.8079 82.807892,73 75,73 l -9,0 c -1.584938,-0.02241 -3.042726,1.414904 -3.042726,3 0,1.585096 1.457788,3.022415 3.042726,3 l 9,0 C 86.028108,79 95,70.0281 95,59 95,51.0734 90.375034,44.2597 83.625,41.03125 81.79675,32.40573 74.104656,26 65,26 63.27217,26 61.488939,26.27353 59.75,26.71875 55.787457,23.22118 50.762458,21 45,21 z m 4.96875,29.9375 C 48.387393,50.9535 46.967131,52.4189 47,54 l 0,16 -1.75,-2 c -0.647817,-0.762786 -1.695708,-1.164884 -2.6875,-1.03125 -1.079694,0.145242 -2.049415,0.926813 -2.420689,1.951016 -0.371273,1.024203 -0.127634,2.245617 0.608189,3.048984 l 7,8 c 1.121987,1.271923 3.378013,1.271923 4.5,0 l 7,-8 C 60.313333,70.794568 60.198697,68.752401 59.010637,67.704598 57.822576,66.656794 55.782093,66.798266 54.75,68 L 53,70 53,54 c 0.03331,-1.6019 -1.429062,-3.0794 -3.03125,-3.0625 z" transform="translate(0,952.36218)"></path></g></svg>