<svg height='100px' width='100px'  fill="#000000" xmlns:dc="http://purl.org/dc/elements/1.1/" xmlns:cc="http://creativecommons.org/ns#" xmlns:rdf="http://www.w3.org/1999/02/22-rdf-syntax-ns#" xmlns:svg="http://www.w3.org/2000/svg" xmlns="http://www.w3.org/2000/svg" xmlns:sodipodi="http://sodipodi.sourceforge.net/DTD/sodipodi-0.dtd" xmlns:inkscape="http://www.inkscape.org/namespaces/inkscape" viewBox="0 0 6.3499999 6.3500002" version="1.1" x="0px" y="0px"><g transform="translate(0,-290.64999)"><path style="color:#000000;font-style:normal;font-variant:normal;font-weight:normal;font-stretch:normal;font-size:medium;line-height:normal;font-family:sans-serif;font-variant-ligatures:normal;font-variant-position:normal;font-variant-caps:normal;font-variant-numeric:normal;font-variant-alternates:normal;font-feature-settings:normal;text-indent:0;text-align:start;text-decoration:none;text-decoration-line:none;text-decoration-style:solid;text-decoration-color:#000000;letter-spacing:normal;word-spacing:normal;text-transform:none;writing-mode:lr-tb;direction:ltr;text-orientation:mixed;dominant-baseline:auto;baseline-shift:baseline;text-anchor:start;white-space:normal;shape-padding:0;clip-rule:nonzero;display:inline;overflow:visible;visibility:visible;opacity:1;isolation:auto;mix-blend-mode:normal;color-interpolation:sRGB;color-interpolation-filters:linearRGB;solid-color:#000000;solid-opacity:1;vector-effect:none;fill:#000000;fill-opacity:1;fill-rule:nonzero;stroke:none;stroke-width:2;stroke-linecap:round;stroke-linejoin:round;stroke-miterlimit:4;stroke-dasharray:none;stroke-dashoffset:0;stroke-opacity:1;color-rendering:auto;image-rendering:auto;shape-rendering:auto;text-rendering:auto;enable-background:accumulate" d="M 11.988281,0.98242188 A 1.0001001,1.0001001 0 0 0 11.189453,1.3984375 L 7.2929688,5.2949219 A 1.0001001,1.0001001 0 1 0 8.7109375,6.7050781 L 10.998047,4.4179688 V 15.001953 a 1.0009765,1.0009765 0 0 0 2.001953,0 V 4.4082031 l 2.294922,2.296875 A 1.0001001,1.0001001 0 1 0 16.705078,5.2949219 L 12.808594,1.3964844 A 1.0001001,1.0001001 0 0 0 11.988281,0.98242188 Z M 4.9824219,6.984375 A 1.0001001,1.0001001 0 0 0 4.0019531,8.0039062 v 5.9296878 a 1.0001001,1.0001001 0 0 0 0,0.06445 v 1.003906 a 1.0002459,1.0002459 0 0 0 0.00586,0.109375 c 0.059509,4.355874 3.6265518,7.892578 7.9960935,7.892578 4.392591,0 7.969763,-3.573437 7.992188,-7.960937 a 1.0002459,1.0002459 0 0 0 0.002,-0.04102 V 13.998047 8.0039062 A 1.0001001,1.0001001 0 0 0 18.986328,6.984375 1.0001001,1.0001001 0 0 0 17.996094,8.0039062 v 6.9980468 c 5e-6,3.325569 -2.666637,6.001953 -5.992188,6.001953 -3.3255614,0 -6.0019646,-2.676384 -6.0019529,-6.001953 V 13.998047 8.0039062 A 1.0001001,1.0001001 0 0 0 4.9824219,6.984375 Z" transform="matrix(0.26458334,0,0,0.26458334,0,290.64999)"></path></g></svg>