<svg height='100px' width='100px'  fill="#000000" xmlns="http://www.w3.org/2000/svg" data-name="CLoud copy 2" viewBox="0 0 32 32" x="0px" y="0px"><title>Upload to Cloud-01-01</title><path d="M26.9,14.85a9,9,0,0,0-16.13-4,7,7,0,0,0-5.1,3.9A5.12,5.12,0,0,0,6,25h6a1,1,0,0,0,0-2H6a3.1,3.1,0,0,1-3-3.11,3.05,3.05,0,0,1,3-3.06,1,1,0,0,1,.16,0,1,1,0,0,0,1.12-.67,5,5,0,0,1,4.16-3.32,1,1,0,0,0,.73-0.45A7,7,0,0,1,25,15.83a1,1,0,0,0,1,.94A3.12,3.12,0,0,1,26,23H20a1,1,0,0,0,0,2h6A5.13,5.13,0,0,0,26.9,14.85Z"></path><path d="M18.71,19.06l-2-2a1,1,0,0,0-1.41,0l-2,2a1,1,0,1,0,1.41,1.41L15,20.18v3.59a1,1,0,0,0,2,0V20.18l0.29,0.29A1,1,0,0,0,18.71,19.06Z"></path></svg>