<svg height='100px' width='100px'  fill="#000000" xmlns:dc="http://purl.org/dc/elements/1.1/" xmlns:cc="http://creativecommons.org/ns#" xmlns:rdf="http://www.w3.org/1999/02/22-rdf-syntax-ns#" xmlns:svg="http://www.w3.org/2000/svg" xmlns="http://www.w3.org/2000/svg" xmlns:sodipodi="http://sodipodi.sourceforge.net/DTD/sodipodi-0.dtd" xmlns:inkscape="http://www.inkscape.org/namespaces/inkscape" version="1.1" x="0px" y="0px" viewBox="0 0 100 100"><g transform="translate(0,-952.36218)"><path style="text-indent:0;text-transform:none;direction:ltr;block-progression:tb;baseline-shift:baseline;color:#000000;enable-background:accumulate;" d="m 31.6875,960.36223 c -1.46384,0.1534 -2.69537,1.5282 -2.6875,3 l 0,5 -14,0 c -2.71811,0 -5,2.2817 -5,5 l 0,66.00007 c 0,2.7181 2.28189,5 5,5 l 70,0 c 2.718109,0 5,-2.2819 5,-5 l 0,-66.00007 c 0,-2.7182 -2.282071,-5 -5,-5 l -14,0 0,-5 c -1.59e-4,-1.5708 -1.429249,-2.9998 -3,-3 l -2,0 c -1.57075,2e-4 -2.99984,1.4292 -3,3 l 0,5 -26,0 0,-5 c -1.59e-4,-1.5708 -1.429249,-2.9998 -3,-3 -0.75883,-4e-4 -1.577599,0 -2.312499,0 z m -15.6875,14 13,0 0,3 c 1.6e-4,1.5708 1.42925,2.99977 3,2.99997 l 2,0 c 1.57075,-2e-4 2.99984,-1.42917 3,-2.99997 l 0,-3 26,0 0,3 c 1.6e-4,1.5708 1.42925,2.99977 3,2.99997 l 2,0 c 1.570751,-2e-4 2.999841,-1.42917 3,-2.99997 l 0,-3 13,0 0,9.99997 -67.999999,0 z m 0,15.99997 68,0 0,48.0001 -67.999999,0 z m 9,7.0624 0,6 50,0 0,-6 z m 0.1875,14.0001 0,6 34,0 0,-6 z" fill="#000000" fill-opacity="1" stroke="none" marker="none" visibility="visible" display="inline" overflow="visible"></path></g></svg>