<svg height='100px' width='100px'  fill="#000000" xmlns="http://www.w3.org/2000/svg" xmlns:xlink="http://www.w3.org/1999/xlink" version="1.1" x="0px" y="0px" viewBox="0 0 24 24" style="enable-background:new 0 0 24 24;" xml:space="preserve"><g><path d="M20,3h-3V1h-1v2H8V1H7v2H4C2.8954468,3,2,3.8954468,2,5v15c0,1.1045532,0.8954468,2,2,2h16c1.1046143,0,2-0.8954468,2-2V5   C22,3.8954468,21.1046143,3,20,3z M21,20c0,0.5513916-0.4486084,1-1,1H4c-0.5513916,0-1-0.4486084-1-1V10h18V20z M21,9H3V5   c0-0.5513916,0.4486084-1,1-1h3v2h1V4h8v2h1V4h3c0.5513916,0,1,0.4486084,1,1V9z M12.0000458,16.2323627l-3.2236729,3.2236118   l-0.7070923-0.7071533l3.2236118-3.2236118l-3.1403637-3.1403637l0.7070923-0.7071533l3.1404247,3.1404247l3.1403332-3.1403942   l0.7070923,0.7071533l-3.1403332,3.1403332l3.2235813,3.2235813l-0.7070923,0.7071533L12.0000458,16.2323627z"></path></g></svg>