<svg width="280" height="280" viewBox="0 0 280 280" fill="none" xmlns="http://www.w3.org/2000/svg">
<circle opacity="0.6" cx="140" cy="140" r="140" fill="#EDF1F8"/>
<path d="M72 72V208C72 212.509 73.7911 216.833 76.9792 220.021C80.1673 223.209 84.4913 225 89 225H191C195.509 225 199.833 223.209 203.021 220.021C206.209 216.833 208 212.509 208 208V108.907C208 106.642 207.547 104.4 206.668 102.313C205.789 100.226 204.503 98.3351 202.883 96.752L165.143 59.845C161.967 56.7396 157.702 55.0006 153.26 55H89C84.4913 55 80.1673 56.7911 76.9792 59.9792C73.7911 63.1673 72 67.4913 72 72ZM114.5 148.5H165.5H114.5ZM114.5 182.5H140H114.5Z" fill="white"/>
<path d="M114.5 148.5H165.5M114.5 182.5H140M72 72V208C72 212.509 73.7911 216.833 76.9792 220.021C80.1673 223.209 84.4913 225 89 225H191C195.509 225 199.833 223.209 203.021 220.021C206.209 216.833 208 212.509 208 208V108.907C208 106.642 207.547 104.4 206.668 102.313C205.789 100.226 204.503 98.3351 202.883 96.752L165.143 59.845C161.967 56.7396 157.702 55.0006 153.26 55H89C84.4913 55 80.1673 56.7911 76.9792 59.9792C73.7911 63.1673 72 67.4913 72 72V72Z" stroke="#AFAFAF" stroke-width="8" stroke-linecap="round" stroke-linejoin="round"/>
<path d="M157 55V89C157 93.5087 158.791 97.8327 161.979 101.021C165.167 104.209 169.491 106 174 106H208" fill="white"/>
<path d="M157 55V89C157 93.5087 158.791 97.8327 161.979 101.021C165.167 104.209 169.491 106 174 106H208" stroke="#AFAFAF" stroke-width="6" stroke-linejoin="round"/>
</svg>
