<svg width="57" height="61" viewBox="0 0 57 61" fill="none" xmlns="http://www.w3.org/2000/svg">
<path d="M53.3883 22.4405H51.8672V15.4886C51.8656 15.4447 51.8613 15.4008 51.8543 15.3573C51.8564 15.0778 51.7516 14.8071 51.5594 14.5953L39.3702 1.38097C39.3702 1.38097 39.3625 1.37608 39.3608 1.37281C39.288 1.29721 39.2051 1.23109 39.114 1.1762C39.0865 1.15988 39.0598 1.14193 39.0323 1.13051C38.9546 1.09007 38.8728 1.05727 38.7881 1.03261C38.7649 1.02689 38.7443 1.01792 38.7219 1.01221C38.6285 0.990523 38.5326 0.979297 38.4364 0.97876H8.47255C7.81508 0.979408 7.18473 1.22751 6.71983 1.66863C6.25493 2.10974 5.99344 2.70784 5.99276 3.33167V22.4397H4.47427C3.53427 22.4397 2.63277 22.794 1.96809 23.4247C1.30341 24.0553 0.929993 24.9107 0.929993 25.8026V43.2911C0.930221 44.183 1.30371 45.0382 1.96834 45.6689C2.63297 46.2995 3.53434 46.6539 4.47427 46.6541H5.99276V58.6258C5.99344 59.2497 6.25493 59.8478 6.71983 60.2889C7.18473 60.73 7.81508 60.9781 8.47255 60.9788H49.39C50.047 60.9772 50.6765 60.7288 51.1408 60.2878C51.6051 59.8468 51.8663 59.2492 51.8672 58.6258V46.6549H53.3857C54.3256 46.6547 55.227 46.3003 55.8916 45.6697C56.5563 45.0391 56.9298 44.1838 56.93 43.292V25.8034C56.9302 24.9119 56.5572 24.0567 55.8931 23.4261C55.2289 22.7954 54.3279 22.4409 53.3883 22.4405ZM8.47255 3.33167H37.1965V15.3695C37.1965 15.6815 37.3272 15.9808 37.5597 16.2014C37.7922 16.422 38.1076 16.546 38.4364 16.546H49.39V22.4397H8.47255V3.33167ZM33.5938 35.4125C31.1579 34.6073 29.568 33.328 29.568 31.3039C29.568 28.9298 31.6566 27.1129 35.1174 27.1129C36.4034 27.0896 37.6795 27.3289 38.8595 27.8145L38.12 30.3534C37.1637 29.9145 36.1144 29.6884 35.0521 29.6926C33.6161 29.6926 32.9197 30.3118 32.9197 31.0346C32.9197 31.9223 33.7468 32.3147 35.6394 32.9927C38.2284 33.9015 39.4468 35.1816 39.4468 37.1421C39.4468 39.4754 37.5551 41.4571 33.5284 41.4571C32.0939 41.4734 30.6738 41.184 29.3728 40.6103L30.0469 38.0093C31.1876 38.5599 32.4449 38.8581 33.7245 38.8815C35.249 38.8815 36.0529 38.2826 36.0529 37.3738C36.0529 36.5074 35.3582 36.0113 33.5938 35.4125ZM27.9816 38.6123V41.2556H18.8199V27.3389H22.151V38.6123H27.9816ZM8.18107 41.2556H4.39775L8.64022 34.2132L4.54908 27.338H8.35906L9.64194 29.8778C10.077 30.7246 10.4038 31.405 10.752 32.1907H10.7941C11.1432 31.3031 11.4261 30.683 11.795 29.8778L13.0358 27.338H16.8191L12.6841 34.13L17.0366 41.254H13.2077L11.8793 38.7346C11.3358 37.7654 10.9876 37.0426 10.574 36.2373H10.531C10.2258 37.0426 9.8569 37.7662 9.39947 38.7346L8.18107 41.2556ZM49.3892 57.9887H8.47255V46.6549H49.39V57.9887H49.3892ZM49.4115 41.2556L48.0839 38.7363C47.5405 37.7662 47.1922 37.0442 46.7787 36.2381H46.7365C46.4313 37.0434 46.0607 37.7662 45.6033 38.7363L44.3866 41.2556H40.6033L44.8457 34.2132L40.7546 27.338H44.5585L45.8483 29.8786C46.2834 30.7254 46.6084 31.4059 46.9575 32.1915H47.0014C47.3453 31.3039 47.6308 30.6838 48.0014 29.8786L49.2413 27.3389H53.0246L48.8896 34.1308L53.243 41.2548H49.4124L49.4115 41.2556Z" fill="#009848"/>
</svg>
