<svg width="83" height="90" viewBox="0 0 83 90" fill="none" xmlns="http://www.w3.org/2000/svg">
<path d="M56.3994 0.696513C56.1666 0.480666 55.8853 0.307656 55.5725 0.187941C55.2598 0.0682256 54.922 0.00429054 54.5797 0H13.7526C10.1145 0.013095 6.62947 1.2601 4.05443 3.47012C1.4794 5.68013 0.0224167 8.67464 0 11.8031V78.1969C0.0224167 81.3254 1.4794 84.3199 4.05443 86.5299C6.62947 88.7399 10.1145 89.9869 13.7526 90H69.1656C72.8036 89.9869 76.2887 88.7399 78.8637 86.5299C81.4388 84.3199 82.8957 81.3254 82.9182 78.1969V25.4798C82.8964 24.913 82.6359 24.3723 82.1851 23.9584L56.3994 0.696513ZM57.1325 7.67526L74.4024 23.2625H63.1747C62.3825 23.265 61.5976 23.133 60.8649 22.8741C60.1322 22.6153 59.4661 22.2346 58.9048 21.754C58.3435 21.2733 57.898 20.7021 57.5939 20.0732C57.2898 19.4442 57.1329 18.7698 57.1325 18.0886V7.67526ZM69.1656 85.6543H13.7526C11.4551 85.6407 9.25592 84.8513 7.62916 83.4561C6.0024 82.0609 5.07845 80.1719 5.05654 78.1962V11.8031C5.07962 9.82816 6.0041 7.94007 7.63073 6.54575C9.25736 5.15143 11.4559 4.3625 13.7526 4.34899H52.0767V18.0886C52.075 19.3413 52.3611 20.5819 52.9185 21.7392C53.4759 22.8965 54.2938 23.9477 55.325 24.8324C56.3562 25.7172 57.5805 26.418 58.9276 26.8947C60.2747 27.3714 61.718 27.6146 63.1747 27.6102H77.8616V78.1949C77.8444 80.172 76.922 82.0635 75.2943 83.4597C73.6665 84.856 71.4646 85.6444 69.1656 85.6543Z" fill="#E1E1E1"/>
</svg>
