<svg width="36" height="22" viewBox="0 0 36 22" fill="none" xmlns="http://www.w3.org/2000/svg">
<path d="M8.63494 21.4474C6.92472 21.4408 5.45313 21.0199 4.22017 20.1847C2.99384 19.3494 2.04924 18.1397 1.38636 16.5554C0.730114 14.9711 0.405303 13.0653 0.411932 10.8381C0.411932 8.61742 0.740057 6.7249 1.39631 5.16051C2.05919 3.59612 3.00379 2.40625 4.23011 1.59091C5.46307 0.768939 6.93134 0.357954 8.63494 0.357954C10.3385 0.357954 11.8035 0.768939 13.0298 1.59091C14.2628 2.41288 15.2107 3.60606 15.8736 5.17045C16.5365 6.72822 16.8646 8.61742 16.858 10.8381C16.858 13.072 16.5265 14.9811 15.8636 16.5653C15.2074 18.1496 14.2661 19.3594 13.0398 20.1946C11.8134 21.0298 10.3452 21.4474 8.63494 21.4474ZM8.63494 17.8778C9.80161 17.8778 10.733 17.2912 11.429 16.1179C12.125 14.9446 12.4697 13.1847 12.4631 10.8381C12.4631 9.29356 12.304 8.00758 11.9858 6.98011C11.6742 5.95265 11.2301 5.1804 10.6534 4.66335C10.0833 4.14631 9.41051 3.88778 8.63494 3.88778C7.47491 3.88778 6.54688 4.4678 5.85085 5.62784C5.15483 6.78788 4.8035 8.52462 4.79688 10.8381C4.79688 12.4025 4.95265 13.7083 5.2642 14.7557C5.58239 15.7964 6.02983 16.5786 6.60653 17.1023C7.18324 17.6193 7.85938 17.8778 8.63494 17.8778ZM27.4549 21.2784C25.9701 21.2784 24.6476 21.0232 23.4876 20.5128C22.3342 19.9957 21.4227 19.2865 20.7532 18.3849C20.0903 17.4768 19.7489 16.4295 19.729 15.2429H24.0643C24.0908 15.7401 24.2532 16.1776 24.5515 16.5554C24.8564 16.9266 25.2608 17.215 25.7646 17.4205C26.2683 17.6259 26.8351 17.7287 27.4648 17.7287C28.1211 17.7287 28.7011 17.6127 29.2049 17.3807C29.7087 17.1487 30.1031 16.8272 30.3881 16.4162C30.6732 16.0052 30.8157 15.5312 30.8157 14.9943C30.8157 14.4508 30.6632 13.9702 30.3583 13.5526C30.06 13.1283 29.6291 12.7969 29.0657 12.5582C28.5089 12.3196 27.846 12.2003 27.0771 12.2003H25.1779V9.03835H27.0771C27.7267 9.03835 28.3001 8.92566 28.7972 8.70028C29.301 8.4749 29.6921 8.16335 29.9705 7.76562C30.2489 7.36127 30.3881 6.89062 30.3881 6.35369C30.3881 5.84328 30.2655 5.39583 30.0202 5.01136C29.7816 4.62026 29.4435 4.31534 29.006 4.09659C28.5752 3.87784 28.0714 3.76847 27.4947 3.76847C26.9113 3.76847 26.3777 3.87453 25.8938 4.08665C25.4099 4.29214 25.0221 4.58712 24.7305 4.97159C24.4388 5.35606 24.283 5.80682 24.2631 6.32386H20.1367C20.1566 5.15057 20.4914 4.11648 21.141 3.22159C21.7906 2.3267 22.6656 1.62737 23.766 1.12358C24.873 0.613162 26.1225 0.357954 27.5146 0.357954C28.9199 0.357954 30.1495 0.613162 31.2035 1.12358C32.2575 1.634 33.0761 2.32339 33.6594 3.19176C34.2494 4.0535 34.5411 5.02131 34.5344 6.09517C34.5411 7.23532 34.1864 8.18655 33.4705 8.94886C32.7612 9.71117 31.8365 10.1951 30.6964 10.4006V10.5597C32.1945 10.7519 33.3346 11.2723 34.1168 12.1207C34.9057 12.9626 35.2968 14.0166 35.2901 15.2827C35.2968 16.4427 34.962 17.4735 34.2859 18.375C33.6164 19.2765 32.6916 19.9858 31.5117 20.5028C30.3318 21.0199 28.9795 21.2784 27.4549 21.2784Z" fill="#31B8BF"/>
</svg>
