<svg width="37" height="22" viewBox="0 0 37 22" fill="none" xmlns="http://www.w3.org/2000/svg">
<path d="M8.63494 21.4474C6.92472 21.4408 5.45313 21.0199 4.22017 20.1847C2.99384 19.3494 2.04924 18.1397 1.38636 16.5554C0.730114 14.9711 0.405303 13.0653 0.411932 10.8381C0.411932 8.61742 0.740057 6.7249 1.39631 5.16051C2.05919 3.59612 3.00379 2.40625 4.23011 1.59091C5.46307 0.768939 6.93134 0.357954 8.63494 0.357954C10.3385 0.357954 11.8035 0.768939 13.0298 1.59091C14.2628 2.41288 15.2107 3.60606 15.8736 5.17045C16.5365 6.72822 16.8646 8.61742 16.858 10.8381C16.858 13.072 16.5265 14.9811 15.8636 16.5653C15.2074 18.1496 14.2661 19.3594 13.0398 20.1946C11.8134 21.0298 10.3452 21.4474 8.63494 21.4474ZM8.63494 17.8778C9.80161 17.8778 10.733 17.2912 11.429 16.1179C12.125 14.9446 12.4697 13.1847 12.4631 10.8381C12.4631 9.29356 12.304 8.00758 11.9858 6.98011C11.6742 5.95265 11.2301 5.1804 10.6534 4.66335C10.0833 4.14631 9.41051 3.88778 8.63494 3.88778C7.47491 3.88778 6.54688 4.4678 5.85085 5.62784C5.15483 6.78788 4.8035 8.52462 4.79688 10.8381C4.79688 12.4025 4.95265 13.7083 5.2642 14.7557C5.58239 15.7964 6.02983 16.5786 6.60653 17.1023C7.18324 17.6193 7.85938 17.8778 8.63494 17.8778ZM19.6197 17.4205V14.0298L28.1211 0.636363H31.0444V5.32954H29.3143L23.9549 13.8111V13.9702H36.0359V17.4205H19.6197ZM29.3938 21V16.3864L29.4734 14.8849V0.636363H33.5103V21H29.3938Z" fill="#31B8BF"/>
</svg>
