<svg width="11" height="12" viewBox="0 0 11 12" fill="none" xmlns="http://www.w3.org/2000/svg">
<path d="M6.25 1.5C6.25 1.08579 5.91421 0.75 5.5 0.75C5.08579 0.75 4.75 1.08579 4.75 1.5H6.25ZM4.75 10.5C4.75 10.9142 5.08579 11.25 5.5 11.25C5.91421 11.25 6.25 10.9142 6.25 10.5H4.75ZM10 6.75C10.4142 6.75 10.75 6.41421 10.75 6C10.75 5.58579 10.4142 5.25 10 5.25V6.75ZM1 5.25C0.585786 5.25 0.25 5.58579 0.25 6C0.25 6.41421 0.585786 6.75 1 6.75L1 5.25ZM4.75 1.5V10.5H6.25V1.5H4.75ZM10 5.25L1 5.25L1 6.75L10 6.75V5.25Z" fill="#FAFAFA"/>
</svg>
