<svg width="17" height="16" viewBox="0 0 17 16" fill="none" xmlns="http://www.w3.org/2000/svg">
<path d="M9.25 4C9.25 3.58579 8.91421 3.25 8.5 3.25C8.08579 3.25 7.75 3.58579 7.75 4H9.25ZM7.75 12C7.75 12.4142 8.08579 12.75 8.5 12.75C8.91421 12.75 9.25 12.4142 9.25 12H7.75ZM12.5 8.75C12.9142 8.75 13.25 8.41421 13.25 8C13.25 7.58579 12.9142 7.25 12.5 7.25V8.75ZM4.5 7.25C4.08579 7.25 3.75 7.58579 3.75 8C3.75 8.41421 4.08579 8.75 4.5 8.75L4.5 7.25ZM7.75 4V12H9.25V4H7.75ZM12.5 7.25L4.5 7.25L4.5 8.75H12.5V7.25Z" fill="#4B4B4B"/>
</svg>
