<svg width="18" height="18" viewBox="0 0 18 18" fill="none" xmlns="http://www.w3.org/2000/svg">
<path fill-rule="evenodd" clip-rule="evenodd" d="M5.17236 10.8936L6.55167 9.06383C6.79305 8.76595 6.72408 8.46808 6.31029 8.46808H6.03443H5.34477C5.34477 8.38297 5.34477 8.38298 5.34477 8.29787C5.41374 5.78723 6.37925 3.87234 7.72408 2.7234C9.65512 1.10638 12.3103 0.97872 14.2758 2.89361C10.1034 -3.02128 1.27581 0.808507 1.27581 8.46808H0.586151H0.344771C-0.0345389 8.46808 -0.103504 8.76595 0.137875 9.06383L1.4827 10.8936L2.8965 12.6383C3.13787 13.0213 3.58615 13.0213 3.82753 12.6383L5.17236 10.8936Z" fill="#01B4D8"/>
<path fill-rule="evenodd" clip-rule="evenodd" d="M17.862 8.93616L16.5172 7.10638L15.1034 5.3617C14.862 4.97872 14.4137 4.97872 14.1723 5.3617L12.8275 7.10638L11.4482 8.93616C11.2068 9.23404 11.2758 9.48936 11.6896 9.48936H11.9654H12.6551C12.6551 9.57446 12.6551 9.65957 12.6551 9.70212C12.5861 12.2128 11.6206 14.1277 10.2758 15.2766C8.37923 16.9787 5.72406 17.0638 3.75854 15.1489C7.93096 21.0638 16.7241 17.1915 16.7241 9.53191H17.4137H17.6551C18.0344 9.48936 18.1034 9.23404 17.862 8.93616Z" fill="#2A3162"/>
</svg>
