<svg width="34" height="34" viewBox="0 0 34 34" fill="none" xmlns="http://www.w3.org/2000/svg">
<path d="M12.1975 31.1667C11.5062 31.1626 10.835 30.9339 10.285 30.515L7.35249 28.3333C6.67576 27.8057 6.22674 27.039 6.09765 26.1906C5.96855 25.3423 6.16918 24.4767 6.65832 23.7717C6.91713 23.3895 7.08161 22.9514 7.13825 22.4934C7.19489 22.0353 7.14208 21.5704 6.98415 21.1367L6.89915 20.91C6.78919 20.5175 6.58821 20.1564 6.31252 19.8561C6.03684 19.5558 5.69422 19.3247 5.31249 19.1817H5.08582C4.25831 18.9034 3.57397 18.3099 3.18141 17.5301C2.78885 16.7503 2.71976 15.8471 2.98915 15.0167L4.15082 11.3333C4.25776 10.9066 4.45464 10.5076 4.72828 10.1631C5.00192 9.81862 5.346 9.53657 5.73749 9.33584C6.10207 9.148 6.50097 9.03607 6.91006 9.00685C7.31915 8.97763 7.72991 9.03172 8.11749 9.16584C8.53949 9.30787 8.98979 9.34468 9.42926 9.27308C9.86873 9.20148 10.2841 9.02364 10.6392 8.75501L10.8233 8.61334C11.1448 8.35686 11.4045 8.03152 11.5835 7.66129C11.7625 7.29107 11.8561 6.8854 11.8575 6.47418V6.13418C11.8537 5.26736 12.1925 4.43414 12.8001 3.81592C13.4077 3.1977 14.2349 2.84454 15.1017 2.83334H18.7142C19.1359 2.83448 19.5532 2.91892 19.9422 3.0818C20.3312 3.24469 20.6841 3.48282 20.9808 3.78251C21.6046 4.41688 21.951 5.27288 21.9442 6.16251V6.55918C21.937 6.94982 22.0217 7.33669 22.1915 7.68859C22.3613 8.04048 22.6114 8.34754 22.9217 8.58501L23.0775 8.69834C23.3954 8.93677 23.7663 9.09479 24.1585 9.15892C24.5507 9.22306 24.9526 9.19141 25.33 9.06668L25.8117 8.91084C26.2197 8.77557 26.6509 8.72387 27.0794 8.75883C27.5079 8.79379 27.925 8.9147 28.3058 9.11433C28.6865 9.31397 29.0232 9.58825 29.2956 9.92082C29.5681 10.2534 29.7708 10.6374 29.8917 11.05L31.0108 14.62C31.2698 15.4451 31.199 16.3384 30.8133 17.1123C30.4277 17.8863 29.7571 18.4808 28.9425 18.7708L28.6592 18.87C28.2424 19.0065 27.8656 19.2432 27.5618 19.5594C27.2579 19.8755 27.0364 20.2615 26.9167 20.6833C26.8039 21.0755 26.7772 21.4874 26.8383 21.8908C26.8994 22.2942 27.047 22.6797 27.2708 23.0208L27.6392 23.5592C28.1276 24.2681 28.3264 25.1371 28.1947 25.9879C28.063 26.8387 27.6108 27.6069 26.9308 28.135L24.0833 30.3308C23.7393 30.5939 23.3451 30.7838 22.9249 30.8888C22.5048 30.9938 22.0675 31.0117 21.6402 30.9413C21.2129 30.871 20.8045 30.7139 20.4401 30.4798C20.0758 30.2457 19.7632 29.9395 19.5217 29.58L19.3517 29.3392C19.1196 28.9905 18.803 28.7063 18.4314 28.513C18.0599 28.3198 17.6454 28.2239 17.2267 28.2342C16.8271 28.2445 16.4356 28.3486 16.0837 28.5381C15.7318 28.7276 15.4294 28.9971 15.2008 29.325L14.875 29.7925C14.6334 30.1545 14.3202 30.4632 13.9547 30.6995C13.5892 30.9358 13.1792 31.0948 12.75 31.1667C12.5663 31.1847 12.3812 31.1847 12.1975 31.1667ZM6.23332 16.4617C7.0333 16.7469 7.75514 17.216 8.34075 17.8311C8.92637 18.4463 9.35939 19.1903 9.60499 20.0033V20.1733C9.91089 21.0186 10.0113 21.9244 9.89803 22.8161C9.78472 23.7079 9.4609 24.5598 8.95332 25.3017C8.86373 25.4007 8.81411 25.5294 8.81411 25.6629C8.81411 25.7964 8.86373 25.9252 8.95332 26.0242L11.9992 28.3333C12.0389 28.3646 12.0848 28.3869 12.1339 28.3989C12.183 28.4109 12.2341 28.4122 12.2838 28.4028C12.3334 28.3934 12.3805 28.3735 12.4218 28.3444C12.4631 28.3153 12.4977 28.2777 12.5233 28.2342L12.8492 27.7667C13.3406 27.0566 13.9969 26.4763 14.7617 26.0754C15.5266 25.6746 16.3773 25.4652 17.2408 25.4652C18.1044 25.4652 18.955 25.6746 19.7199 26.0754C20.4848 26.4763 21.1411 27.0566 21.6325 27.7667L21.8025 28.0217C21.8634 28.1081 21.9543 28.1687 22.0575 28.1917C22.1048 28.1987 22.1531 28.196 22.1993 28.1838C22.2456 28.1716 22.2889 28.1502 22.3267 28.1208L25.245 25.9108C25.3471 25.8298 25.4144 25.7126 25.4328 25.5835C25.4512 25.4544 25.4195 25.3231 25.3442 25.2167L24.9758 24.6783C24.4959 23.9785 24.1793 23.1798 24.0493 22.3412C23.9193 21.5027 23.9794 20.6456 24.225 19.8333C24.474 18.9796 24.9243 18.1982 25.5382 17.5547C26.152 16.9113 26.9114 16.4247 27.7525 16.1358L28.0358 16.0367C28.1539 15.9894 28.2485 15.8973 28.2989 15.7805C28.3493 15.6637 28.3515 15.5317 28.305 15.4133L27.2 11.8858C27.1735 11.8241 27.1347 11.7684 27.086 11.7222C27.0373 11.6759 26.9797 11.64 26.9167 11.6167C26.8749 11.5955 26.8288 11.5845 26.7821 11.5845C26.7353 11.5845 26.6892 11.5955 26.6475 11.6167L26.1658 11.7725C25.351 12.0414 24.4831 12.1084 23.6367 11.9678C22.7903 11.8271 21.9907 11.483 21.3067 10.965L21.25 10.8375C20.5936 10.3404 20.0614 9.69796 19.6952 8.96055C19.3289 8.22314 19.1386 7.41086 19.1392 6.58751V6.14834C19.1417 6.0118 19.0909 5.87964 18.9975 5.78001C18.916 5.70635 18.8098 5.66592 18.7 5.66668H15.1017C15.0439 5.67028 14.9875 5.68525 14.9356 5.71071C14.8837 5.73618 14.8373 5.77165 14.7991 5.81509C14.761 5.85853 14.7317 5.90907 14.7132 5.96383C14.6946 6.01859 14.687 6.07648 14.6908 6.13418V6.48834C14.6909 7.33415 14.4968 8.16868 14.1235 8.92763C13.7501 9.68658 13.2075 10.3497 12.5375 10.8658L12.3533 11.0075C11.6304 11.5579 10.7833 11.922 9.88647 12.0678C8.98968 12.2135 8.0708 12.1365 7.21082 11.8433C7.14647 11.8217 7.07684 11.8217 7.01249 11.8433C6.93254 11.8919 6.87232 11.9672 6.84249 12.0558L5.66665 15.7533C5.62567 15.8793 5.63527 16.0162 5.69344 16.1352C5.7516 16.2542 5.85377 16.3458 5.97832 16.3908L6.23332 16.4617Z" fill="#323232"/>
<path d="M17.0001 21.9583C16.0194 21.9583 15.0608 21.6675 14.2454 21.1227C13.43 20.5779 12.7945 19.8035 12.4192 18.8975C12.0439 17.9914 11.9457 16.9945 12.137 16.0327C12.3283 15.0708 12.8006 14.1874 13.494 13.4939C14.1874 12.8005 15.0709 12.3283 16.0328 12.1369C16.9946 11.9456 17.9915 12.0438 18.8976 12.4191C19.8036 12.7944 20.578 13.4299 21.1228 14.2453C21.6676 15.0607 21.9584 16.0193 21.9584 17C21.9584 18.315 21.436 19.5762 20.5062 20.5061C19.5763 21.4359 18.3151 21.9583 17.0001 21.9583V21.9583ZM17.0001 14.875C16.5798 14.875 16.169 14.9996 15.8195 15.2331C15.47 15.4666 15.1977 15.7985 15.0368 16.1868C14.876 16.5751 14.8339 17.0024 14.9159 17.4146C14.9979 17.8268 15.2003 18.2054 15.4975 18.5026C15.7947 18.7998 16.1733 19.0022 16.5855 19.0842C16.9977 19.1662 17.425 19.1241 17.8133 18.9632C18.2016 18.8024 18.5335 18.53 18.767 18.1806C19.0005 17.8311 19.1251 17.4203 19.1251 17C19.1251 16.4364 18.9012 15.8959 18.5027 15.4974C18.1042 15.0989 17.5637 14.875 17.0001 14.875Z" fill="#323232"/>
</svg>
