<svg width="26" height="24" viewBox="0 0 26 24" fill="none" xmlns="http://www.w3.org/2000/svg">
<path d="M25.3299 19.54L15.5899 1.6C15.3321 1.12621 14.9512 0.730718 14.4875 0.455153C14.0238 0.179588 13.4944 0.0341492 12.9549 0.0341492C12.4155 0.0341492 11.8861 0.179588 11.4224 0.455153C10.9587 0.730718 10.5778 1.12621 10.3199 1.6L0.569945 19.54C0.31475 19.9981 0.18407 20.515 0.190931 21.0393C0.197792 21.5636 0.341954 22.077 0.609047 22.5282C0.876141 22.9794 1.25684 23.3528 1.71319 23.611C2.16954 23.8693 2.6856 24.0034 3.20994 24H22.6899C23.21 24.0005 23.7212 23.8658 24.1735 23.6091C24.6258 23.3524 25.0036 22.9825 25.2698 22.5358C25.536 22.0891 25.6815 21.5808 25.6921 21.0609C25.7026 20.5409 25.5778 20.0272 25.3299 19.57V19.54ZM11.4599 6.74C11.4599 6.34218 11.618 5.96065 11.8993 5.67934C12.1806 5.39804 12.5621 5.24 12.9599 5.24C13.3578 5.24 13.7393 5.39804 14.0206 5.67934C14.3019 5.96065 14.4599 6.34218 14.4599 6.74V13.63C14.4599 14.0278 14.3019 14.4094 14.0206 14.6907C13.7393 14.972 13.3578 15.13 12.9599 15.13C12.5621 15.13 12.1806 14.972 11.8993 14.6907C11.618 14.4094 11.4599 14.0278 11.4599 13.63V6.74ZM12.9999 20.25C12.6598 20.25 12.3272 20.1491 12.0444 19.9601C11.7615 19.7711 11.5411 19.5025 11.4109 19.1882C11.2807 18.8739 11.2466 18.5281 11.313 18.1944C11.3794 17.8608 11.5432 17.5543 11.7837 17.3138C12.0243 17.0732 12.3307 16.9094 12.6644 16.8431C12.998 16.7767 13.3439 16.8107 13.6582 16.9409C13.9724 17.0711 14.2411 17.2916 14.4301 17.5744C14.6191 17.8573 14.7199 18.1898 14.7199 18.53C14.7199 18.9862 14.5387 19.4237 14.2162 19.7462C13.8936 20.0688 13.4561 20.25 12.9999 20.25Z" fill="#FCD34D"/>
</svg>
