<svg width="34" height="34" viewBox="0 0 34 34" fill="currentColor" xmlns="http://www.w3.org/2000/svg">
<path d="M10.3626 19.6408C10.4655 19.7438 10.6348 19.7438 10.7377 19.6408L14.1178 16.2608L16.9766 19.1229C17.0795 19.2258 17.2489 19.2258 17.3518 19.1229L24.8657 11.6024C24.9686 11.4994 24.9686 11.3301 24.8657 11.2272L23.6438 10.0053C23.5409 9.90237 23.3715 9.90237 23.2686 10.0053L17.1659 16.1147L14.3071 13.2526C14.2042 13.1496 14.0348 13.1496 13.9319 13.2526L9.14067 18.0438C9.03774 18.1467 9.03774 18.316 9.14067 18.419L10.3626 19.6408Z" fill="#E0E0E0"/>
<path d="M30.0156 5.3125H18.1953V3.1875C18.1953 3.04141 18.0758 2.92188 17.9297 2.92188H16.0703C15.9242 2.92188 15.8047 3.04141 15.8047 3.1875V5.3125H3.98438C3.39668 5.3125 2.92188 5.7873 2.92188 6.375V23.6406C2.92188 24.2283 3.39668 24.7031 3.98438 24.7031H15.818V25.7656L10.3461 29.3549C10.2232 29.4346 10.19 29.5973 10.2697 29.7201L11.2758 31.2873V31.2906C11.3555 31.4135 11.5215 31.4467 11.6443 31.367L17 27.8541L22.3557 31.367C22.4785 31.4467 22.6445 31.4135 22.7242 31.2906V31.2873L23.7303 29.7201C23.81 29.5973 23.7734 29.4346 23.6539 29.3549L18.1953 25.7756V24.7031H30.0156C30.6033 24.7031 31.0781 24.2283 31.0781 23.6406V6.375C31.0781 5.7873 30.6033 5.3125 30.0156 5.3125ZM28.6875 22.3125H5.3125V7.70312H28.6875V22.3125Z" fill="#E0E0E0"/>
</svg>
