<svg width="17" height="20" viewBox="0 0 17 20" fill="none" xmlns="http://www.w3.org/2000/svg">
<path fill-rule="evenodd" clip-rule="evenodd" d="M12 3.5H16.5V5H15V18.5L13.5 20H3L1.5 18.5V5H0V3.5H4.5V2C4.5 1.60218 4.65804 1.22064 4.93934 0.93934C5.22064 0.658035 5.60218 0.5 6 0.5H10.5C10.8978 0.5 11.2794 0.658035 11.5607 0.93934C11.842 1.22064 12 1.60218 12 2V3.5ZM10.5 2H6V3.5H10.5V2ZM3 18.5H13.5V5H3V18.5ZM6 6.5H4.5V17H6V6.5ZM7.5 6.5H9V17H7.5V6.5ZM10.5 6.5H12V17H10.5V6.5Z" fill="#969696"/>
</svg>
