<svg width="32" height="32" viewBox="0 0 32 32" fill="none" xmlns="http://www.w3.org/2000/svg">
<path d="M0 16C0 7.16344 7.16344 0 16 0C24.8366 0 32 7.16344 32 16C32 24.8366 24.8366 32 16 32C7.16344 32 0 24.8366 0 16Z" fill="#EBF8F9"/>
<path d="M18.06 13.02L18.98 13.94L9.92 23H9V22.08L18.06 13.02ZM21.66 7C21.41 7 21.15 7.1 20.96 7.29L19.13 9.12L22.88 12.87L24.71 11.04C24.8027 10.9475 24.8762 10.8376 24.9264 10.7166C24.9766 10.5957 25.0024 10.466 25.0024 10.335C25.0024 10.204 24.9766 10.0743 24.9264 9.95338C24.8762 9.8324 24.8027 9.72251 24.71 9.63L22.37 7.29C22.17 7.09 21.92 7 21.66 7ZM18.06 10.19L7 21.25V25H10.75L21.81 13.94L18.06 10.19Z" fill="#31B8BF"/>
</svg>
