<svg width="64" height="42" viewBox="0 0 64 42" fill="none" xmlns="http://www.w3.org/2000/svg">
<path opacity="0.6" d="M54.6305 25.7151C54.6305 29.0643 57.3418 31.7761 60.6919 31.7761C61.7286 31.7761 62.7075 31.5147 63.5629 31.0551V37.8278C63.5629 39.2853 62.7104 40.5424 61.4824 41.1324C61.3231 41.2121 61.1574 41.2792 60.985 41.3302C60.6404 41.4387 60.2741 41.4961 59.8938 41.4961H35.6715C35.2918 41.4961 34.922 41.4385 34.5773 41.3302C34.4081 41.2759 34.2422 41.2121 34.0794 41.1324C32.8514 40.5424 31.9995 39.2822 31.9995 37.8278V31.0551C32.8544 31.5147 33.8337 31.7761 34.8705 31.7761C35.1354 31.7761 35.4005 31.7602 35.6555 31.7219C38.6354 31.3424 40.9317 28.7997 40.9317 25.7151C40.9317 22.6335 38.6354 20.0877 35.6555 19.7082C35.4005 19.6699 35.1354 19.6538 34.8705 19.6538C33.8337 19.6538 32.8544 19.9152 31.9995 20.3779V13.6054C31.9995 12.1505 32.8514 10.8904 34.0794 10.3003C34.1881 10.2462 34.2998 10.2013 34.4118 10.16C34.8036 10.0167 35.228 9.93688 35.6715 9.93688H42.7474C42.6262 9.75824 42.5144 9.56992 42.4123 9.37522C42.3771 9.3112 42.345 9.24432 42.3136 9.18074C42.2498 9.04676 42.1923 8.91256 42.138 8.7755C41.8665 8.08976 41.7202 7.34308 41.7202 6.56494C41.7202 6.04156 41.7871 5.53446 41.9116 5.04958C41.9624 4.85796 42.0199 4.66678 42.0872 4.48154C42.1222 4.38892 42.1571 4.29652 42.1959 4.20698C42.3136 3.93286 42.4475 3.67106 42.5978 3.42224C42.7505 3.17386 42.9197 2.9345 43.1047 2.7112C43.229 2.56138 43.3601 2.41772 43.4972 2.28066C44.5945 1.18308 46.1064 0.503723 47.7817 0.503723C49.4561 0.503723 50.9686 1.18 52.0657 2.28066C52.2025 2.41464 52.3337 2.55786 52.4582 2.7112C52.6432 2.9345 52.8122 3.17386 52.9655 3.42224C53.1153 3.67128 53.2493 3.93286 53.3675 4.20698C53.4055 4.29652 53.4412 4.38892 53.4757 4.48154C53.543 4.66656 53.6002 4.85796 53.6512 5.04958C53.7753 5.53446 53.8427 6.04156 53.8427 6.56494C53.8427 7.34308 53.6957 8.08998 53.4249 8.7755C53.3705 8.91256 53.3131 9.04676 53.2493 9.18074C53.2172 9.24432 53.1855 9.3112 53.1505 9.37522C53.0487 9.56992 52.9369 9.75802 52.8155 9.93688H59.8942C60.3349 9.93688 60.759 10.0132 61.1515 10.16C61.2635 10.2013 61.3746 10.2462 61.4828 10.3003C62.7109 10.8904 63.5634 12.1474 63.5634 13.6054V20.3779C62.708 19.9152 61.729 19.6538 60.6924 19.6538C57.3418 19.6538 54.6305 22.3686 54.6305 25.7151Z" fill="#FFBE55"/>
<path d="M40.9322 25.7151C40.9322 28.7997 38.6358 31.3424 35.6559 31.7219C35.4009 31.7602 35.1358 31.7761 34.871 31.7761C33.8341 31.7761 32.8549 31.5147 32 31.0551V37.8278C32 39.8534 30.3541 41.4963 28.3286 41.4963H21.0484C21.8201 40.4817 22.2799 39.2123 22.2799 37.8371C22.2799 34.4909 19.5647 31.7759 16.2185 31.7759C12.8688 31.7759 10.1575 34.4909 10.1575 37.8371C10.1575 39.2121 10.6169 40.4817 11.3858 41.4963H4.10595C2.08041 41.4963 0.437012 39.8534 0.437012 37.8278V13.6056C0.437012 11.5796 2.08041 9.93689 4.10595 9.93689H11.3858C10.6169 10.9513 10.1575 12.2176 10.1575 13.5929C10.1575 16.9426 12.8688 19.6541 16.2185 19.6541C19.5647 19.6541 22.2799 16.9426 22.2799 13.5929C22.2799 12.2176 21.8201 10.9515 21.0484 9.93689H28.3284C30.3539 9.93689 31.9997 11.5796 31.9997 13.6056V20.3781C32.8547 19.9154 33.8339 19.6541 34.8708 19.6541C35.1356 19.6541 35.4007 19.6699 35.6557 19.7084C38.6356 20.0877 40.9322 22.6333 40.9322 25.7151Z" fill="#FFBE55"/>
</svg>
