<svg width="20" height="19" viewBox="0 0 20 19" fill="none" xmlns="http://www.w3.org/2000/svg">
<path d="M19.7 11.35L18.7 12.35L16.65 10.3L17.65 9.3C17.86 9.08 18.21 9.08 18.42 9.3L19.7 10.58C19.92 10.79 19.92 11.14 19.7 11.35ZM10 16.94L16.07 10.88L18.12 12.93L12.06 19H10V16.94ZM2 0H16C16.5304 0 17.0391 0.210714 17.4142 0.585786C17.7893 0.960859 18 1.46957 18 2V6.17L14.17 10H10V14.17L8.17 16H2C1.46957 16 0.960859 15.7893 0.585786 15.4142C0.210714 15.0391 0 14.5304 0 14V2C0 1.46957 0.210714 0.960859 0.585786 0.585786C0.960859 0.210714 1.46957 0 2 0ZM2 4V8H8V4H2ZM10 4V8H16V4H10ZM2 10V14H8V10H2Z" fill="#323232"/>
</svg>
