<svg width="34" height="34" viewBox="0 0 34 34" fill="none" xmlns="http://www.w3.org/2000/svg">
<path d="M22.4453 18.7598C20.7586 18.7598 19.3906 20.1277 19.3906 21.8145C19.3906 23.5012 20.7586 24.8691 22.4453 24.8691C24.132 24.8691 25.5 23.5012 25.5 21.8145C25.5 20.1277 24.132 18.7598 22.4453 18.7598ZM22.4453 22.9434C21.8211 22.9434 21.3164 22.4387 21.3164 21.8145C21.3164 21.1902 21.8211 20.6855 22.4453 20.6855C23.0695 20.6855 23.5742 21.1902 23.5742 21.8145C23.5742 22.4387 23.0695 22.9434 22.4453 22.9434ZM29.2188 5.57812H22.1797C22.1797 4.55215 21.3463 3.71875 20.3203 3.71875H17.6641C16.6381 3.71875 15.8047 4.55215 15.8047 5.57812H8.76562C8.17793 5.57812 7.70312 6.05293 7.70312 6.64062V13.2812H4.78125C4.19355 13.2812 3.71875 13.7561 3.71875 14.3438V29.2188C3.71875 29.8064 4.19355 30.2812 4.78125 30.2812H15.9375C16.5252 30.2812 17 29.8064 17 29.2188V28.6875H29.2188C29.8064 28.6875 30.2812 28.2127 30.2812 27.625V6.64062C30.2812 6.05293 29.8064 5.57812 29.2188 5.57812ZM15.5391 7.70312H17.9297V5.84375H20.0547V7.70312H22.4453V9.29688H15.5391V7.70312ZM14.875 28.1562H5.84375V20.4531H14.875V28.1562ZM14.875 18.3281H5.84375V15.4062H14.875V18.3281ZM27.8906 26.2969H17V14.3438C17 13.7561 16.5252 13.2812 15.9375 13.2812H10.0938V7.96875H13.4141V11.4219H24.5703V7.96875H27.8906V26.2969ZM23.375 13.5469V16.7344C23.375 16.8805 23.4945 17 23.6406 17H25.2344C25.3805 17 25.5 16.8805 25.5 16.7344V13.5469C25.5 13.4008 25.3805 13.2812 25.2344 13.2812H23.6406C23.4945 13.2812 23.375 13.4008 23.375 13.5469ZM19.6562 17H21.25C21.3961 17 21.5156 16.8805 21.5156 16.7344V14.875C21.5156 14.7289 21.3961 14.6094 21.25 14.6094H19.6562C19.5102 14.6094 19.3906 14.7289 19.3906 14.875V16.7344C19.3906 16.8805 19.5102 17 19.6562 17Z" fill="#323232"/>
</svg>
