<svg width="35" height="35" viewBox="0 0 35 35" fill="none" xmlns="http://www.w3.org/2000/svg">
<path d="M20.298 19.081L19.9842 18.6917C19.9633 18.7085 19.9424 18.7254 19.9213 18.7424C19.6704 18.9443 19.4044 19.1584 19.1867 19.376C18.5042 20.057 18.4235 20.7062 18.4163 20.8221L18.4153 20.838L18.4153 20.854L18.4159 21.25H16.5834V20.8051C16.5834 20.7098 16.6074 19.3645 17.888 18.0827C18.1869 17.7966 18.4998 17.5254 18.8256 17.2703L18.8256 17.2703L18.8315 17.2655C19.3474 16.8487 19.8174 16.4547 20.1549 16.045C20.5026 15.6229 20.7399 15.1486 20.7399 14.5732C20.7399 12.7853 19.2862 11.3333 17.5 11.3333C15.8838 11.3333 14.5397 12.5223 14.2987 14.0732H12.4522C12.5687 12.912 13.0824 11.8204 13.9148 10.988C14.8659 10.0369 16.1552 9.50185 17.5001 9.5C18.845 9.50152 20.1343 10.0365 21.0851 10.9876C22.0361 11.9388 22.5708 13.2285 22.5718 14.5735C22.5716 16.5688 21.1108 17.7791 19.9832 18.6925L20.298 19.081ZM20.298 19.081L20.3021 19.0776C21.4057 18.1837 23.0718 16.8342 23.0718 14.5732L18.9153 20.8532C18.9167 20.8306 18.962 20.3064 19.54 19.7298C19.7377 19.5322 19.9831 19.3346 20.2398 19.1278C20.2591 19.1123 20.2785 19.0967 20.298 19.081ZM18.4167 23.6667V25.5H16.5834V23.6667H18.4167Z" fill="#E0E0E0" stroke="#E0E0E0"/>
<path d="M17.5 3.33334C9.68854 3.33334 3.33337 9.68851 3.33337 17.5C3.33337 25.3115 9.68854 31.6667 17.5 31.6667C25.3115 31.6667 31.6667 25.3115 31.6667 17.5C31.6667 9.68851 25.3115 3.33334 17.5 3.33334ZM17.5 28.8333C11.2511 28.8333 6.16671 23.7489 6.16671 17.5C6.16671 11.2511 11.2511 6.16668 17.5 6.16668C23.749 6.16668 28.8334 11.2511 28.8334 17.5C28.8334 23.7489 23.749 28.8333 17.5 28.8333Z" fill="#E0E0E0"/>
</svg>
