<svg width="34" height="34" viewBox="0 0 34 34" fill="none" xmlns="http://www.w3.org/2000/svg">
<path d="M28.688 17.2005H16.8013V5.31375C16.8013 5.16766 16.6818 5.04813 16.5357 5.04813H15.6724C13.9282 5.04527 12.2007 5.38732 10.5892 6.05459C8.97776 6.72186 7.51412 7.70118 6.28254 8.93621C5.06966 10.1453 4.10325 11.5786 3.43703 13.1563C2.74377 14.7927 2.38803 16.5522 2.39113 18.3294C2.38828 20.0735 2.73032 21.8011 3.39759 23.4125C4.06486 25.024 5.04419 26.4876 6.27922 27.7192C7.49777 28.9378 8.91887 29.8973 10.4993 30.5647C12.1357 31.258 13.8952 31.6137 15.6724 31.6106C17.4165 31.6135 19.1441 31.2714 20.7555 30.6042C22.367 29.9369 23.8306 28.9576 25.0622 27.7225C26.2808 26.504 27.2404 25.0829 27.9077 23.5024C28.601 21.866 28.9567 20.1065 28.9536 18.3294V17.4661C28.9536 17.32 28.8341 17.2005 28.688 17.2005ZM23.432 26.1587C22.4038 27.1788 21.1845 27.986 19.8438 28.5342C18.5032 29.0823 17.0676 29.3605 15.6193 29.3528C12.6941 29.3395 9.94484 28.194 7.87629 26.1255C5.79445 24.0436 4.64895 21.2745 4.64895 18.3294C4.64895 15.3843 5.79445 12.6151 7.87629 10.5333C9.68918 8.72039 12.0234 7.61473 14.5435 7.36239V19.4583H26.6394C26.3837 21.9917 25.2681 24.3391 23.432 26.1587ZM31.6099 15.3544L31.5236 14.418C31.2413 11.36 29.8833 8.47469 27.6986 6.29657C25.5123 4.11444 22.6328 2.76397 19.5571 2.47821L18.6175 2.39188C18.4614 2.3786 18.3286 2.49813 18.3286 2.65418V15.4075C18.3286 15.5536 18.4482 15.6731 18.5943 15.6731L31.3443 15.6399C31.5003 15.6399 31.6232 15.5071 31.6099 15.3544ZM20.5798 13.422V4.90203C22.6714 5.33981 24.5908 6.37565 26.1048 7.88367C27.6222 9.39774 28.6614 11.3235 29.0931 13.3987L20.5798 13.422Z" fill="#323232"/>
</svg>
