<svg width="131" height="40" viewBox="0 0 131 40" fill="none" xmlns="http://www.w3.org/2000/svg">
<rect width="131" height="40" fill="#FAFAFA"/>
<path d="M39.4347 27V12.4545H42.0696V24.7912H48.4759V27H39.4347ZM63.1935 19.7273C63.1935 21.2945 62.9 22.6368 62.3129 23.7543C61.7305 24.867 60.935 25.7192 59.9265 26.3111C58.9227 26.9029 57.784 27.1989 56.5103 27.1989C55.2366 27.1989 54.0955 26.9029 53.087 26.3111C52.0832 25.7145 51.2878 24.8598 50.7006 23.7472C50.1183 22.6297 49.8271 21.2898 49.8271 19.7273C49.8271 18.16 50.1183 16.8201 50.7006 15.7074C51.2878 14.59 52.0832 13.7353 53.087 13.1435C54.0955 12.5516 55.2366 12.2557 56.5103 12.2557C57.784 12.2557 58.9227 12.5516 59.9265 13.1435C60.935 13.7353 61.7305 14.59 62.3129 15.7074C62.9 16.8201 63.1935 18.16 63.1935 19.7273ZM60.5444 19.7273C60.5444 18.6241 60.3716 17.6937 60.0259 16.9361C59.685 16.1738 59.2115 15.5985 58.6055 15.2102C57.9994 14.8172 57.301 14.6207 56.5103 14.6207C55.7196 14.6207 55.0212 14.8172 54.4151 15.2102C53.8091 15.5985 53.3332 16.1738 52.9876 16.9361C52.6467 17.6937 52.4762 18.6241 52.4762 19.7273C52.4762 20.8305 52.6467 21.7633 52.9876 22.5256C53.3332 23.2831 53.8091 23.8584 54.4151 24.2514C55.0212 24.6397 55.7196 24.8338 56.5103 24.8338C57.301 24.8338 57.9994 24.6397 58.6055 24.2514C59.2115 23.8584 59.685 23.2831 60.0259 22.5256C60.3716 21.7633 60.5444 20.8305 60.5444 19.7273ZM75.429 17.0994C75.3106 16.7159 75.1473 16.3726 74.9389 16.0696C74.7353 15.7618 74.4891 15.4991 74.2003 15.2812C73.9162 15.0634 73.5895 14.9001 73.2202 14.7912C72.8509 14.6776 72.4484 14.6207 72.0128 14.6207C71.2315 14.6207 70.5355 14.8172 69.9247 15.2102C69.3139 15.6032 68.8333 16.1809 68.483 16.9432C68.1373 17.7008 67.9645 18.6241 67.9645 19.7131C67.9645 20.8116 68.1373 21.742 68.483 22.5043C68.8286 23.2666 69.3092 23.8466 69.9247 24.2443C70.5402 24.6373 71.2552 24.8338 72.0696 24.8338C72.8082 24.8338 73.4474 24.6918 73.9872 24.4077C74.5317 24.1236 74.9508 23.7211 75.2443 23.2003C75.5379 22.6747 75.6847 22.0592 75.6847 21.3537L76.2812 21.446H72.3324V19.3864H78.2344V21.1335C78.2344 22.3788 77.9692 23.456 77.4389 24.3651C76.9086 25.2741 76.1795 25.9749 75.2514 26.4673C74.3234 26.955 73.258 27.1989 72.0554 27.1989C70.7154 27.1989 69.5388 26.8982 68.5256 26.2969C67.517 25.6908 66.7287 24.8314 66.1605 23.7188C65.5971 22.6013 65.3153 21.2756 65.3153 19.7415C65.3153 18.5672 65.4811 17.5185 65.8125 16.5952C66.1487 15.6719 66.6174 14.8883 67.2188 14.2443C67.8201 13.5956 68.5256 13.1032 69.3352 12.767C70.1449 12.4261 71.0256 12.2557 71.9773 12.2557C72.7822 12.2557 73.5327 12.3741 74.2287 12.6108C74.9247 12.8428 75.5426 13.1742 76.0824 13.6051C76.6269 14.036 77.0743 14.5473 77.4247 15.1392C77.7751 15.7311 78.0047 16.3845 78.1136 17.0994H75.429ZM93.7795 19.7273C93.7795 21.2945 93.4859 22.6368 92.8988 23.7543C92.3164 24.867 91.521 25.7192 90.5124 26.3111C89.5086 26.9029 88.3699 27.1989 87.0962 27.1989C85.8226 27.1989 84.6815 26.9029 83.6729 26.3111C82.6692 25.7145 81.8737 24.8598 81.2866 23.7472C80.7042 22.6297 80.413 21.2898 80.413 19.7273C80.413 18.16 80.7042 16.8201 81.2866 15.7074C81.8737 14.59 82.6692 13.7353 83.6729 13.1435C84.6815 12.5516 85.8226 12.2557 87.0962 12.2557C88.3699 12.2557 89.5086 12.5516 90.5124 13.1435C91.521 13.7353 92.3164 14.59 92.8988 15.7074C93.4859 16.8201 93.7795 18.16 93.7795 19.7273ZM91.1303 19.7273C91.1303 18.6241 90.9575 17.6937 90.6119 16.9361C90.271 16.1738 89.7975 15.5985 89.1914 15.2102C88.5853 14.8172 87.887 14.6207 87.0962 14.6207C86.3055 14.6207 85.6071 14.8172 85.0011 15.2102C84.395 15.5985 83.9192 16.1738 83.5735 16.9361C83.2326 17.6937 83.0621 18.6241 83.0621 19.7273C83.0621 20.8305 83.2326 21.7633 83.5735 22.5256C83.9192 23.2831 84.395 23.8584 85.0011 24.2514C85.6071 24.6397 86.3055 24.8338 87.0962 24.8338C87.887 24.8338 88.5853 24.6397 89.1914 24.2514C89.7975 23.8584 90.271 23.2831 90.6119 22.5256C90.9575 21.7633 91.1303 20.8305 91.1303 19.7273Z" fill="#00A4AD"/>
</svg>
