<svg width="35" height="34" viewBox="0 0 35 34" fill="none" xmlns="http://www.w3.org/2000/svg">
<path fill-rule="evenodd" clip-rule="evenodd" d="M21.25 26.5625C21.25 26.8443 21.1381 27.1145 20.9388 27.3138C20.7395 27.5131 20.4693 27.625 20.1875 27.625H3.1875C2.90571 27.625 2.63546 27.5131 2.4362 27.3138C2.23694 27.1145 2.125 26.8443 2.125 26.5625V7.4375C2.125 7.15571 2.23694 6.88546 2.4362 6.6862C2.63546 6.48694 2.90571 6.375 3.1875 6.375H20.1875C20.4693 6.375 20.7395 6.48694 20.9388 6.6862C21.1381 6.88546 21.25 7.15571 21.25 7.4375V11.6875C21.25 11.9693 21.3619 12.2395 21.5612 12.4388C21.7605 12.6381 22.0307 12.75 22.3125 12.75C22.5943 12.75 22.8645 12.6381 23.0638 12.4388C23.2631 12.2395 23.375 11.9693 23.375 11.6875V7.4375C23.375 6.59212 23.0392 5.78137 22.4414 5.1836C21.8436 4.58583 21.0329 4.25 20.1875 4.25H3.1875C2.34212 4.25 1.53137 4.58583 0.933597 5.1836C0.335825 5.78137 0 6.59212 0 7.4375L0 26.5625C0 27.4079 0.335825 28.2186 0.933597 28.8164C1.53137 29.4142 2.34212 29.75 3.1875 29.75H20.1875C21.0329 29.75 21.8436 29.4142 22.4414 28.8164C23.0392 28.2186 23.375 27.4079 23.375 26.5625V22.3125C23.375 22.0307 23.2631 21.7605 23.0638 21.5612C22.8645 21.3619 22.5943 21.25 22.3125 21.25C22.0307 21.25 21.7605 21.3619 21.5612 21.5612C21.3619 21.7605 21.25 22.0307 21.25 22.3125V26.5625Z" fill="#323232"/>
<path fill-rule="evenodd" clip-rule="evenodd" d="M33.6898 17.7521C33.7887 17.6534 33.8672 17.5362 33.9208 17.4071C33.9743 17.278 34.0019 17.1396 34.0019 16.9999C34.0019 16.8601 33.9743 16.7217 33.9208 16.5927C33.8672 16.4636 33.7887 16.3463 33.6898 16.2476L27.3148 9.87263C27.1152 9.67312 26.8446 9.56104 26.5625 9.56104C26.2804 9.56104 26.0098 9.67312 25.8102 9.87263C25.6107 10.0721 25.4987 10.3427 25.4987 10.6249C25.4987 10.907 25.6107 11.1776 25.8102 11.3771L30.3726 15.9374H11.6875C11.4057 15.9374 11.1355 16.0493 10.9362 16.2486C10.7369 16.4478 10.625 16.7181 10.625 16.9999C10.625 17.2817 10.7369 17.5519 10.9362 17.7512C11.1355 17.9504 11.4057 18.0624 11.6875 18.0624H30.3726L25.8102 22.6226C25.6107 22.8221 25.4987 23.0927 25.4987 23.3749C25.4987 23.657 25.6107 23.9276 25.8102 24.1271C26.0098 24.3266 26.2804 24.4387 26.5625 24.4387C26.8446 24.4387 27.1152 24.3266 27.3148 24.1271L33.6898 17.7521Z" fill="#323232"/>
</svg>
