<svg width="66" height="66" viewBox="0 0 66 66" fill="none" xmlns="http://www.w3.org/2000/svg">
<path opacity="0.3" d="M25.374 10.5977C21.6463 12.8286 19.0892 16.4085 19.0892 16.4085C14.9924 22.1363 16.1809 26.4425 11.8139 31.2675C9.06769 34.2974 7.91517 33.3636 6.19539 36.0303C3.51219 40.1912 3.18804 47.3406 5.78121 51.9374C11.4808 62.0232 29.5519 56.8765 31.4157 56.3162C35.1614 55.1956 38.2948 54.5937 41.1761 51.6468C44.6157 48.1188 44.5797 44.705 48.1183 42.692C51.7829 40.6063 53.9619 43.024 56.0598 41.26C59.7695 38.1367 58.8691 25.4671 53.2506 17.4358C46.4705 7.79607 33.4867 5.74153 25.374 10.5977Z" fill="#FFBE55"/>
<path opacity="0.3" d="M32.9915 15.153C37.0973 15.6303 40.3388 17.5499 40.3388 17.5499C45.5251 20.6317 45.246 24.3984 50.5133 26.6915C53.8268 28.1235 54.7633 27.0028 57.0053 28.497C60.4898 30.8317 62.2726 36.3105 60.6699 40.7931C57.1583 50.6299 38.3759 52.7571 36.44 52.9646C32.5413 53.3693 29.3358 53.9712 25.9143 52.643C21.8174 51.0554 21.1601 48.3783 17.2704 48.0047C13.2546 47.6208 11.6068 50.2564 9.19375 49.5923C4.91683 48.4094 3.20606 38.2094 7.0778 30.012C11.7329 20.1544 24.0414 14.1153 32.9915 15.153Z" fill="#FFBE55"/>
<path d="M34.4465 23.9391L11.171 28.0793L28.2607 48.3652L54.6966 43.5609L34.4465 23.9391Z" fill="#0B4870"/>
<path d="M28.4588 48.7076C28.3778 48.7076 28.3057 48.6453 28.2877 48.5519C28.2697 48.4482 28.3328 48.3548 28.4318 48.334L54.4805 43.509C54.5706 43.4882 54.6606 43.5609 54.6786 43.6646C54.6966 43.7684 54.6336 43.8618 54.5345 43.8825L28.4858 48.7076C28.4768 48.7076 28.4678 48.7076 28.4588 48.7076Z" fill="#0B4870"/>
<path d="M53.6973 40.2611V43.3117L28.621 48.0123V44.8371L53.6973 40.2611Z" fill="#F7F7F7"/>
<path d="M53.6973 38.1339V40.7384L28.621 45.3041V42.8345L53.6973 38.1339Z" fill="#F7F7F7"/>
<path d="M34.7257 18.6055L11 22.2683L28.6209 42.5542L54.1294 37.75L34.7257 18.6055Z" fill="#2A94F4"/>
<path d="M28.63 42.8967C28.549 42.8967 28.4769 42.8345 28.4679 42.7411C28.4499 42.6373 28.5129 42.5439 28.603 42.5232L53.9224 37.6982C54.0124 37.6774 54.0935 37.75 54.1115 37.8538C54.1295 37.9576 54.0664 38.051 53.9764 38.0717L28.657 42.8967C28.648 42.8967 28.639 42.8967 28.63 42.8967Z" fill="#2A94F4"/>
<path d="M11.2431 22.6835C11.171 22.6835 11.108 22.6109 11.099 22.5175C11.09 22.4137 11.144 22.3203 11.2251 22.2996L34.5546 18.4395C34.5816 18.4292 34.6446 18.5122 34.7256 18.5952C34.7977 18.6678 34.8157 18.7716 34.5996 18.8131L11.2701 22.6731C11.2611 22.6835 11.2521 22.6835 11.2431 22.6835Z" fill="#2A94F4"/>
<path d="M11 22.2684V21.5213V27.9028C11 27.9754 11.027 28.0584 11.072 28.1103L28.1707 48.5518C28.3328 48.749 28.6209 48.6141 28.6209 48.3443V42.5647" fill="#0E538C"/>
<path opacity="0.5" d="M53.6973 40.3545V43.3117L28.621 48.0123V45.2106L53.6973 40.3545Z" fill="#D3D3D3"/>
<path d="M17.501 23.524L22.1831 28.8159L38.0032 26.5331L32.9339 21.1063L17.501 23.524Z" stroke="#FFBE55" stroke-width="0.626123" stroke-miterlimit="10"/>
</svg>
