<svg width="54" height="50" viewBox="0 0 54 50" fill="none" xmlns="http://www.w3.org/2000/svg">
<path d="M36.8901 40.8679C35.8768 41.9585 34.7218 42.9436 33.4532 43.8001C29.9486 46.1744 25.5629 47.5835 20.801 47.5835C17.4762 47.5835 14.3346 46.8971 11.5509 45.6745C7.60409 49.6955 1.29944 49.3292 1.29944 49.3292L6.25604 42.353C2.40824 39.0332 0.0223389 34.4085 0.0223389 29.29C0.0223389 24.7375 1.90994 20.5747 5.03339 17.3735C6.13889 16.2418 7.39949 15.2285 8.78549 14.3623C7.94382 16.4809 7.48529 18.758 7.48529 21.1289C7.48529 32.4332 17.8935 41.5957 30.7305 41.5957C32.8641 41.5955 34.9283 41.3431 36.8901 40.8679Z" fill="#2A94F4"/>
<path d="M41.5794 29.2898C41.5794 33.6838 39.8222 37.7149 36.8901 40.8679C34.9281 41.3431 32.8641 41.5955 30.7307 41.5955C17.8937 41.5955 7.48547 32.4331 7.48547 21.1288C7.48547 18.7579 7.94401 16.4807 8.78567 14.3621C12.1781 12.2435 16.3229 10.9963 20.801 10.9963C32.2767 10.9963 41.5794 19.1852 41.5794 29.2898Z" fill="url(#paint0_linear_2473_2595)"/>
<path d="M47.0046 35.743L52.5503 43.5491C52.5503 43.5491 45.4947 43.9583 41.081 39.4606C39.7511 40.0429 38.3486 40.5164 36.8901 40.8679C34.9281 41.3431 32.8641 41.5955 30.7307 41.5955C17.8937 41.5955 7.48547 32.4331 7.48547 21.1288C7.48547 18.7579 7.94401 16.4807 8.78567 14.3621C11.9585 6.38288 20.5865 0.66217 30.7307 0.66217C43.5693 0.66217 53.9775 9.82313 53.9775 21.1288C53.9775 26.8544 51.3095 32.029 47.0046 35.743Z" fill="#CCE9FF"/>
<path d="M37.5306 21.5173H37.1055C35.9525 21.5173 34.916 21.0771 33.9953 20.1972C33.0746 19.3171 32.6144 18.2195 32.6144 16.9044C32.6144 15.6095 33.0746 14.5423 33.9953 13.7029C34.916 12.8631 36.054 12.4435 37.4089 12.4435C38.8859 12.4435 40.115 13.0352 41.0964 14.2187C42.0776 15.4024 42.5682 17.0866 42.5682 19.2717C42.5682 21.2744 42.1385 23.1508 41.2785 24.9008C40.4187 26.6506 39.3665 28.0366 38.1222 29.0587C36.878 30.0798 35.7703 30.5912 34.7993 30.5912C34.1519 30.5912 33.6463 30.3986 33.2821 30.0143C32.918 29.6299 32.7357 29.1344 32.7357 28.5275C32.7357 27.637 33.1305 26.9797 33.9194 26.5548C34.9919 25.9677 35.8416 25.2802 36.4685 24.4911C37.0959 23.7021 37.45 22.7106 37.5306 21.5173Z" fill="#2A94F4"/>
<path d="M25.4003 21.5173H25.0058C23.8731 21.5173 22.8463 21.0771 21.9256 20.1972C21.0052 19.3171 20.5447 18.2195 20.5447 16.9044C20.5447 15.6298 21.0052 14.5573 21.9256 13.6878C22.8463 12.8177 23.9846 12.3829 25.3396 12.3829C26.8368 12.3829 28.0708 12.9898 29.042 14.2035C30.013 15.4175 30.4983 17.1066 30.4983 19.2717C30.4983 20.8291 30.2457 22.2958 29.7396 23.6719C29.2344 25.0475 28.5817 26.2462 27.7822 27.2681C26.9833 28.2894 26.1238 29.0989 25.2028 29.6959C24.2824 30.2925 23.4578 30.5913 22.7298 30.5913C22.062 30.5913 21.5512 30.4039 21.1971 30.0297C20.8432 29.6551 20.666 29.1545 20.666 28.5277C20.666 27.6171 21.0605 26.9594 21.8493 26.5549C22.9624 25.9276 23.8023 25.235 24.3682 24.4761C24.9352 23.7173 25.279 22.7309 25.4003 21.5173Z" fill="#2A94F4"/>
<defs>
<linearGradient id="paint0_linear_2473_2595" x1="24.5324" y1="10.9963" x2="24.5324" y2="41.5956" gradientUnits="userSpaceOnUse">
<stop offset="0.3943" stop-color="#80E8BE"/>
<stop offset="1" stop-color="#00C278"/>
</linearGradient>
</defs>
</svg>
