<svg width="66" height="66" viewBox="0 0 66 66" fill="none" xmlns="http://www.w3.org/2000/svg">
<path d="M37.57 46.0436H22.8749C21.6761 46.0436 20.7931 45.7615 20.2505 45.2054C19.4823 44.4178 19.343 43.0802 19.3532 42.6628C19.3554 42.6168 19.3565 42.5713 19.3565 42.5253V32.7285L23.9743 37.3459C24.5199 37.8915 25.2349 38.1645 25.9501 38.1645C26.6653 38.1645 27.3801 37.8917 27.9259 37.3459C29.0169 36.2549 29.0169 34.4856 27.9259 33.3949L18.6267 24.0955C18.0622 23.5312 17.3166 23.265 16.577 23.2841C15.8375 23.2648 15.092 23.531 14.5274 24.0955L5.22827 33.3949C4.13729 34.4856 4.13729 36.2549 5.22827 37.3459C5.77409 37.8915 6.48887 38.1645 7.20409 38.1645C7.91931 38.1645 8.63409 37.8917 9.17991 37.3459L13.7682 32.7575V42.4769C13.7486 43.1633 13.7852 46.519 16.1838 49.0382C17.3102 50.2214 19.3851 51.6316 22.8747 51.6316H37.5698C39.1129 51.6316 40.3638 50.3806 40.3638 48.8376C40.3638 47.2945 39.1133 46.0436 37.57 46.0436Z" fill="#FFBE55"/>
<path d="M28.4299 19.9567H43.1248C44.3236 19.9567 45.2067 20.2387 45.7492 20.7949C46.5174 21.5825 46.6567 22.9201 46.6466 23.3374C46.6444 23.3834 46.6433 23.4289 46.6433 23.4749V33.2717L42.0255 28.6544C41.4799 28.1088 40.7649 27.8357 40.0497 27.8357C39.3344 27.8357 38.6197 28.1085 38.0738 28.6544C36.9829 29.7453 36.9829 31.5146 38.0738 32.6056L47.373 41.9047C47.9375 42.469 48.6831 42.7352 49.4228 42.7161C50.1622 42.7355 50.9078 42.4693 51.4723 41.9047L60.7715 32.6056C61.8624 31.5146 61.8624 29.7453 60.7715 28.6544C60.2256 28.1088 59.5109 27.8357 58.7956 27.8357C58.0804 27.8357 57.3656 28.1085 56.8198 28.6544L52.2315 33.2427V23.5233C52.2511 22.8369 52.2146 19.4815 49.8159 16.962C48.6895 15.7789 46.6147 14.3687 43.125 14.3687H28.4301C26.8868 14.3687 25.6359 15.6196 25.6359 17.1627C25.6359 18.7057 26.8866 19.9567 28.4299 19.9567Z" fill="#2A94F4"/>
</svg>
