<svg width="30" height="37" viewBox="0 0 30 37" fill="none" xmlns="http://www.w3.org/2000/svg">
<path d="M29.8021 8.22179L21.6317 0.175867C21.5217 0.0659501 21.3679 0 21.2066 0H6.13337C3.85442 0 2.00782 1.94919 2.00782 4.35271V20.4152H0V31.3043H2.00782V32.2863C2.00782 34.6825 3.86175 36.639 6.13337 36.639H25.8745C28.1534 36.639 30 34.6898 30 32.2863V8.69809C30 8.52223 29.934 8.34636 29.8021 8.22179ZM21.0015 1.34831L28.1094 8.35369H24.2404C22.4524 8.35369 21.0015 6.92477 21.0015 5.17342V1.34831ZM28.7543 32.2863C28.7543 33.9643 27.4646 35.3273 25.8745 35.3273H6.13337C4.54323 35.3273 3.25354 33.9643 3.25354 32.2863V31.3043H16.9565C19.6312 31.3043 21.7929 28.8642 21.7929 25.8598C21.7929 22.8554 19.6238 20.4152 16.9565 20.4152H3.25354V4.35271C3.25354 2.67465 4.54323 1.31168 6.13337 1.31168H19.7557V5.17342C19.7557 7.65022 21.7636 9.66536 24.2404 9.66536H28.7543V32.2863ZM3.85442 28.6077V23.1119H5.9575C6.56571 23.1119 7.04201 23.2658 7.37909 23.5808C7.71617 23.8959 7.89204 24.3063 7.89204 24.8192C7.89204 25.3322 7.7235 25.7499 7.37909 26.0576C7.03468 26.3654 6.55838 26.5266 5.9575 26.5266H4.7704V28.6077H3.85442ZM9.00586 28.6077V23.1119H10.8232C11.5193 23.1119 12.0835 23.3317 12.5232 23.764C12.9629 24.1964 13.1754 24.7606 13.1754 25.4421V26.2775C13.1754 26.9663 12.9555 27.5232 12.5232 27.9555C12.0835 28.3879 11.5193 28.6077 10.8232 28.6077H9.00586ZM17.5501 25.53V26.2628H15.3371V28.6077H14.4138V23.1119H17.9311V23.8447H15.3298V25.5227H17.5501V25.53Z" fill="#EC4B4B"/>
</svg>
