<svg width="64" height="48" viewBox="0 0 64 48" fill="none" xmlns="http://www.w3.org/2000/svg">
<path d="M43.7048 37.1955C36.4173 48.0172 21.7366 50.8821 10.9147 43.5947C0.0930074 36.3072 -2.77255 21.6266 4.51517 10.8048C11.8027 -0.0174153 26.4833 -2.88231 37.3051 4.40524C48.127 11.6928 50.9924 26.3733 43.7048 37.1955Z" fill="#2A94F4"/>
<path d="M38.2709 33.5363C33.0042 41.357 22.3944 43.4276 14.5739 38.1611C6.75275 32.8945 4.68233 22.2848 9.94896 14.4641C15.2158 6.64314 25.8251 4.57239 33.6459 9.83919C41.4664 15.1057 43.5375 25.7153 38.2709 33.5363Z" fill="#CCE9FF"/>
<path d="M32.8531 29.7937C29.6534 34.6222 23.1448 35.9425 18.3164 32.743C13.4876 29.5433 12.1669 23.0351 15.3664 18.2065C18.5663 13.3778 25.0745 12.0571 29.9034 15.257C34.7318 18.4565 36.0528 24.9649 32.8531 29.7937Z" fill="#2A94F4"/>
<path d="M28.3321 26.8434C26.7618 29.175 23.5984 29.7926 21.2666 28.2223C18.9345 26.6519 18.3174 23.4887 19.8879 21.1569C21.4583 18.8249 24.6212 18.2075 26.9533 19.778C29.2848 21.3483 29.9024 24.5113 28.3321 26.8434Z" fill="#0B4870"/>
<path d="M48.3137 16.8717L51.1016 10.8457C51.1867 10.6626 51.354 10.5309 51.552 10.4923L60.0328 8.83733C60.5452 8.73701 60.9496 9.2688 60.7164 9.73575L58.1086 14.96L48.3137 16.8717Z" fill="#2A94F4"/>
<path d="M49.1272 21.6149L53.9759 26.1499C54.1234 26.2882 54.3283 26.3468 54.5262 26.3082L63.007 24.6534C63.5193 24.5529 63.6944 23.9086 63.302 23.5634L58.9219 19.7031L49.1272 21.6149Z" fill="#2A94F4"/>
<path d="M22.6773 24.3684C22.4255 23.0761 23.2674 21.8238 24.5595 21.5697L58.6595 14.8558C59.9545 14.6009 61.2096 15.4454 61.4624 16.7401C61.7145 18.0327 60.8728 19.2851 59.5807 19.5392L25.4802 26.2527C24.1856 26.5076 22.9304 25.6637 22.6773 24.3684Z" fill="#FFBE55"/>
</svg>
