<svg width="12" height="12" viewBox="0 0 12 12" fill="none" xmlns="http://www.w3.org/2000/svg">
<path d="M9.56358 8.50298C9.27069 8.21009 8.79581 8.21009 8.50292 8.50298C8.21003 8.79588 8.21003 9.27075 8.50292 9.56364L9.56358 8.50298ZM10.1363 11.197C10.4291 11.4899 10.904 11.4899 11.1969 11.197C11.4898 10.9041 11.4898 10.4292 11.1969 10.1363L10.1363 11.197ZM10.9499 5.76665C10.9499 2.90397 8.62926 0.583313 5.76658 0.583313V2.08331C7.80083 2.08331 9.44992 3.7324 9.44992 5.76665H10.9499ZM5.76658 0.583313C2.90391 0.583313 0.583252 2.90397 0.583252 5.76665H2.08325C2.08325 3.7324 3.73234 2.08331 5.76658 2.08331V0.583313ZM0.583252 5.76665C0.583252 8.62932 2.90391 10.95 5.76658 10.95V9.44998C3.73234 9.44998 2.08325 7.80089 2.08325 5.76665H0.583252ZM5.76658 10.95C8.62926 10.95 10.9499 8.62932 10.9499 5.76665H9.44992C9.44992 7.80089 7.80083 9.44998 5.76658 9.44998V10.95ZM8.50292 9.56364L10.1363 11.197L11.1969 10.1363L9.56358 8.50298L8.50292 9.56364Z" fill="#AFAFAF"/>
</svg>
