<svg width="281" height="280" viewBox="0 0 281 280" fill="none" xmlns="http://www.w3.org/2000/svg">
<circle opacity="0.6" cx="140.5" cy="140" r="140" fill="#EDF1F8"/>
<path d="M86.1431 211C83.5816 211 81.4329 210.131 79.6971 208.393C77.9673 206.661 77.1024 204.512 77.1024 201.947C77.1024 199.382 77.9673 197.233 79.6971 195.501C81.4329 193.763 83.5816 192.894 86.1431 192.894H194.631C197.192 192.894 199.338 193.763 201.068 195.501C202.804 197.233 203.672 199.382 203.672 201.947C203.672 204.512 202.804 206.661 201.068 208.393C199.338 210.131 197.192 211 194.631 211H86.1431ZM118.237 170.941C117.032 170.941 115.902 170.751 114.847 170.37C113.792 169.996 112.813 169.356 111.909 168.451L73.4862 129.976C71.8287 128.316 71 126.128 71 123.413C71 120.697 71.8287 118.509 73.4862 116.849C75.1436 115.189 77.2531 114.36 79.8146 114.36C82.3762 114.36 84.4856 115.189 86.1431 116.849L118.237 148.987L194.631 72.4896C196.288 70.8299 198.437 70 201.077 70C203.711 70 205.856 70.8299 207.514 72.4896C209.171 74.1493 210 76.2978 210 78.9353C210 81.5787 209.171 83.7303 207.514 85.39L124.566 168.451C123.662 169.356 122.682 169.996 121.628 170.37C120.573 170.751 119.443 170.941 118.237 170.941Z" fill="#00C161"/>
</svg>
