<svg width="22" height="28" viewBox="0 0 22 28" fill="none" xmlns="http://www.w3.org/2000/svg">
<path d="M6.49087 -0.000274725C6.24138 0.0471771 6.01668 0.181275 5.85647 0.378332C5.69627 0.575388 5.61086 0.822724 5.61533 1.07665V2.15357H1.74487C0.883328 2.15357 0.230713 2.80619 0.230713 3.66772V26.3843C0.230713 27.3536 0.883328 27.9997 1.74487 27.9997H20.1538C21.0153 27.9997 21.6679 27.3471 21.6679 26.4856V3.66772C21.7756 2.80619 21.1166 2.15357 20.255 2.15357H16.3846V1.07665C16.3846 0.79103 16.2711 0.517111 16.0691 0.315149C15.8672 0.113186 15.5933 -0.000274725 15.3076 -0.000274725H6.69225C6.65853 -0.00186155 6.62475 -0.00186155 6.59102 -0.000274725C6.5573 -0.00186155 6.52352 -0.00186155 6.48979 -0.000274725H6.49087ZM7.76917 2.15357H14.2307V4.30742H7.76917V2.15357ZM2.38456 4.30742H5.61533V5.38434C5.61533 5.66996 5.72879 5.94388 5.93075 6.14584C6.13271 6.3478 6.40663 6.46126 6.69225 6.46126H15.3076C15.5933 6.46126 15.8672 6.3478 16.0691 6.14584C16.2711 5.94388 16.3846 5.66996 16.3846 5.38434V4.30742H19.6153V25.8459H2.38456V4.30742ZM4.53841 9.69203V13.9997H8.8461V9.69203H4.53841ZM5.61533 10.769H7.76917V12.9228H5.61533V10.769ZM10.9999 10.769V12.9228H17.4615V10.769H10.9999ZM4.53841 16.1536V20.4613H8.8461V16.1536H4.53841ZM10.9999 17.2305V19.3843H17.4615V17.2305H10.9999Z" fill="#E0E0E0"/>
</svg>
