<svg width="35" height="34" viewBox="0 0 35 34" fill="none" xmlns="http://www.w3.org/2000/svg">
<path d="M13.8425 4.44282C14.9251 3.71943 16.1979 3.33333 17.5 3.33333C19.246 3.33333 20.9205 4.02693 22.1551 5.26154C23.3897 6.49616 24.0833 8.17065 24.0833 9.91666C24.0833 11.2187 23.6972 12.4915 22.9738 13.5742C22.2505 14.6568 21.2223 15.5006 20.0193 15.9989C18.8164 16.4971 17.4927 16.6275 16.2157 16.3735C14.9386 16.1195 13.7656 15.4925 12.8449 14.5718C11.9242 13.6511 11.2972 12.478 11.0432 11.201C10.7891 9.92396 10.9195 8.60028 11.4178 7.39733C11.9161 6.19438 12.7599 5.16621 13.8425 4.44282ZM14.861 13.8661C15.6422 14.3881 16.5605 14.6667 17.5 14.6667C18.7598 14.6667 19.968 14.1662 20.8588 13.2754C21.7496 12.3846 22.25 11.1764 22.25 9.91666C22.25 8.9772 21.9714 8.05884 21.4495 7.2777C20.9275 6.49657 20.1857 5.88775 19.3177 5.52823C18.4498 5.16872 17.4947 5.07465 16.5733 5.25793C15.6519 5.44121 14.8055 5.8936 14.1412 6.5579C13.4769 7.2222 13.0245 8.06857 12.8413 8.98998C12.658 9.91139 12.7521 10.8665 13.1116 11.7344C13.4711 12.6024 14.0799 13.3442 14.861 13.8661ZM29.75 28.3333V29.25H27.9167V28.3333C27.9167 26.3221 27.1177 24.3933 25.6956 22.9711C24.2734 21.549 22.3446 20.75 20.3333 20.75H14.6667C12.6554 20.75 10.7266 21.549 9.30444 22.9711C7.88229 24.3933 7.08333 26.3221 7.08333 28.3333V29.25H5.25V28.3333C5.25 25.8359 6.24211 23.4407 8.00808 21.6747C9.77404 19.9088 12.1692 18.9167 14.6667 18.9167H20.3333C22.8308 18.9167 25.226 19.9088 26.9919 21.6747C28.7579 23.4407 29.75 25.8359 29.75 28.3333Z" fill="#E0E0E0" stroke="#E0E0E0"/>
</svg>
