<svg height='100px' width='100px'  fill="#000000" xmlns="http://www.w3.org/2000/svg" data-name="Layer 17" viewBox="0 0 24 24" x="0px" y="0px"><title>social media_user interface</title><path d="M20.673,7.293l-7-4.773a2.951,2.951,0,0,0-3.346,0l-7,4.773A3.053,3.053,0,0,0,2,9.821v9.133A3.026,3.026,0,0,0,5,22H19a3.026,3.026,0,0,0,3-3.046V9.821A3.053,3.053,0,0,0,20.673,7.293ZM10,20V15h4v5H10Zm10-1.046A1.025,1.025,0,0,1,19,20H16V14a1,1,0,0,0-1-1H9a1,1,0,0,0-1,1v6H5a1.025,1.025,0,0,1-1-1.046V9.821a1.056,1.056,0,0,1,.454-0.876l7-4.773a0.962,0.962,0,0,1,1.092,0l7,4.773A1.056,1.056,0,0,1,20,9.821v9.133Z"></path></svg>