<svg height='100px' width='100px'  fill="#000000" xmlns="http://www.w3.org/2000/svg" xmlns:xlink="http://www.w3.org/1999/xlink" version="1.1" x="0px" y="0px" viewBox="0 0 512 512" style="enable-background:new 0 0 512 512;" xml:space="preserve"><g><path d="M237,179.3c9.4,0,17-7.6,17-17v-35.6c0-7.2,5.9-12.7,13.1-12.7h134.2c7.2,0,12.7,5.5,12.7,12.7v258.6   c0,7.2-5.5,12.7-12.7,12.7H267.1c-7.2,0-13.1-5.5-13.1-12.7v-34.9c0-9.4-7.6-17-17-17s-17,7.6-17,17v34.9   c0,25.9,21.2,46.7,47.1,46.7h134.2c25.9,0,46.7-20.8,46.7-46.7V126.7c0-25.9-20.8-46.7-46.7-46.7H267.1   c-25.9,0-47.1,20.8-47.1,46.7v35.6C220,171.7,227.6,179.3,237,179.3z"></path><path d="M70.2,269.3l64.4,64.4c3.3,3.3,7.7,5,12,5s8.7-1.7,12-5c6.6-6.6,6.6-17.4,0-24L121.9,273h219.8   c9.4,0,17-7.6,17-17s-7.6-17-17-17H118.2l41.2-47.5c6.2-7.1,5.4-17.8-1.7-24c-7.1-6.2-17.8-5.4-24,1.7l-64.4,74.2   c-3.4,3.1-5.6,7.6-5.6,12.6C63.7,261.4,66.2,266.2,70.2,269.3z"></path></g></svg>