<svg height='100px' width='100px'  fill="#000000" xmlns="http://www.w3.org/2000/svg" xmlns:xlink="http://www.w3.org/1999/xlink" version="1.1" x="0px" y="0px" viewBox="0 0 32 32" style="enable-background:new 0 0 32 32;" xml:space="preserve"><title>print</title><path d="M27,8h-3V4c0-1.1-0.9-2-2-2H10C8.9,2,8,2.9,8,4v4H5c-1.7,0-3,1.3-3,3c0,0,0,0,0,0.1v9.9c0,1.7,1.3,3,2.9,3.1  c0,0,0,0,0.1,0h3v4c0,1.1,0.9,2,2,2h12c1.1,0,2-0.9,2-2v-4h3c1.7,0,3-1.3,3-3c0,0,0,0,0-0.1v-9.9C30,9.4,28.7,8,27,8C27,8,27,8,27,8  z M10,4h12v4H10V4z M22,28H10v-9h12V28z M28,20.9c0,0.6-0.4,1-0.9,1.1c0,0,0,0-0.1,0h-3v-3c0-1.1-0.9-2-2-2H10c-1.1,0-2,0.9-2,2v3H5  c-0.6,0-1-0.4-1-1c0,0,0,0,0-0.1v-9.9c0-0.6,0.4-1,0.9-1.1c0,0,0,0,0.1,0h22c0.6,0,1,0.4,1,1c0,0,0,0,0,0.1V20.9z M20,25  c0,0.6-0.4,1-1,1h-6c-0.6,0-1-0.4-1-1s0.4-1,1-1h6C19.6,24,20,24.4,20,25z M20,22c0,0.6-0.4,1-1,1h-6c-0.6,0-1-0.4-1-1s0.4-1,1-1h6  C19.6,21,20,21.4,20,22z M26,13c0,0.6-0.4,1-1,1h-2c-0.6,0-1-0.4-1-1s0.4-1,1-1h2C25.6,12,26,12.4,26,13z"></path></svg>