<svg height='100px' width='100px'  fill="#000000" xmlns="http://www.w3.org/2000/svg" xmlns:xlink="http://www.w3.org/1999/xlink" version="1.1" x="0px" y="0px" viewBox="0 0 32 32" style="enable-background:new 0 0 32 32;" xml:space="preserve"><g><path d="M30,12h-2.693c-0.141-0.4-0.302-0.791-0.481-1.168l1.902-1.903c0.391-0.391,0.391-1.023,0-1.414l-4.242-4.243   c-0.375-0.375-1.039-0.375-1.414,0l-1.903,1.903C20.79,4.995,20.4,4.834,20,4.693V2c0-0.552-0.447-1-1-1h-6c-0.553,0-1,0.448-1,1   v2.693c-0.4,0.141-0.79,0.302-1.168,0.481L8.929,3.272c-0.375-0.375-1.039-0.375-1.414,0L3.272,7.515   c-0.391,0.391-0.391,1.023,0,1.414l1.902,1.903C4.995,11.209,4.834,11.6,4.693,12H2c-0.553,0-1,0.448-1,1v6c0,0.552,0.447,1,1,1   h2.693c0.141,0.4,0.302,0.791,0.481,1.168l-1.902,1.903c-0.391,0.391-0.391,1.023,0,1.414l4.242,4.243   c0.375,0.375,1.039,0.375,1.414,0l1.903-1.903c0.378,0.18,0.768,0.341,1.168,0.481V30c0,0.552,0.447,1,1,1h6c0.553,0,1-0.448,1-1   v-2.693c0.4-0.141,0.79-0.302,1.168-0.481l1.903,1.903c0.375,0.375,1.039,0.375,1.414,0l4.242-4.243   c0.391-0.391,0.391-1.023,0-1.414l-1.902-1.903c0.18-0.378,0.341-0.768,0.481-1.168H30c0.553,0,1-0.448,1-1v-6   C31,12.448,30.553,12,30,12z M29,18h-2.425c-0.447,0-0.84,0.297-0.962,0.727c-0.215,0.758-0.513,1.479-0.885,2.144   c-0.218,0.391-0.15,0.879,0.166,1.195l1.712,1.712l-2.828,2.829l-1.712-1.712c-0.316-0.317-0.804-0.384-1.195-0.166   c-0.665,0.372-1.386,0.669-2.144,0.884C18.297,25.735,18,26.128,18,26.575V29h-4v-2.425c0-0.447-0.297-0.84-0.728-0.962   c-0.758-0.215-1.479-0.512-2.144-0.884c-0.39-0.217-0.879-0.15-1.195,0.166l-1.712,1.712l-2.828-2.829l1.712-1.712   c0.316-0.316,0.384-0.805,0.166-1.195c-0.372-0.665-0.67-1.386-0.885-2.144C6.265,18.297,5.872,18,5.425,18H3v-4h2.425   c0.447,0,0.84-0.297,0.962-0.727c0.215-0.758,0.513-1.479,0.885-2.144c0.218-0.391,0.15-0.879-0.166-1.195L5.394,8.222l2.828-2.829   l1.712,1.712c0.316,0.316,0.805,0.383,1.195,0.166c0.665-0.372,1.386-0.669,2.144-0.884C13.703,6.265,14,5.872,14,5.425V3h4v2.425   c0,0.447,0.297,0.84,0.728,0.962c0.758,0.215,1.479,0.512,2.144,0.884c0.392,0.218,0.879,0.15,1.195-0.166l1.712-1.712l2.828,2.829   l-1.712,1.712c-0.316,0.316-0.384,0.805-0.166,1.195c0.372,0.665,0.67,1.386,0.885,2.144C25.735,13.703,26.128,14,26.575,14H29V18z   "></path><path d="M16,10c-3.309,0-6,2.691-6,6s2.691,6,6,6s6-2.691,6-6S19.309,10,16,10z M16,20c-2.206,0-4-1.794-4-4s1.794-4,4-4   s4,1.794,4,4S18.206,20,16,20z"></path></g></svg>