<svg height='100px' width='100px'  fill="#000000" xmlns:dc="http://purl.org/dc/elements/1.1/" xmlns:cc="http://creativecommons.org/ns#" xmlns:rdf="http://www.w3.org/1999/02/22-rdf-syntax-ns#" xmlns:svg="http://www.w3.org/2000/svg" xmlns="http://www.w3.org/2000/svg" xmlns:sodipodi="http://sodipodi.sourceforge.net/DTD/sodipodi-0.dtd" xmlns:inkscape="http://www.inkscape.org/namespaces/inkscape" version="1.1" x="0px" y="0px" viewBox="0 0 100 100"><g transform="translate(0,-952.36218)"><path style="font-size:medium;font-style:normal;font-variant:normal;font-weight:normal;font-stretch:normal;text-indent:0;text-align:start;text-decoration:none;line-height:normal;letter-spacing:normal;word-spacing:normal;text-transform:none;direction:ltr;block-progression:tb;writing-mode:lr-tb;text-anchor:start;baseline-shift:baseline;opacity:1;color:#000000;fill:#000000;fill-opacity:1;stroke:none;stroke-width:6;marker:none;visibility:visible;display:inline;overflow:visible;enable-background:accumulate;font-family:Sans;-inkscape-font-specification:Sans" d="m 6,13 c -1.7385645,0 -3,1.585786 -3,3 0,1.414214 1.4269007,3 3,3 l 10,0 c 1.29548,0 1.484551,0.15038 1.65625,0.75 0.0031,0.0107 -0.0031,0.02025 0,0.03125 l 9.40625,50.75 C 27.30834,71.897029 28.61229,72.992902 30,73 l 50,0 c 1.584938,0.02241 3.03125,-1.414904 3.03125,-3 0,-1.585096 -1.446312,-3.022415 -3.03125,-3 L 32.5,67 31.375,61 76,61 c 6.366325,0 10.167982,-3.452399 11.46875,-9.03125 L 92.720102,29.629087 C 92.863297,29.019923 93,28.457228 93,28 92.93973,26.474466 91.556388,25.011127 90,25 L 24.71875,25 23.5,18.4375 C 23.483686,18.342821 23.46282,18.248927 23.4375,18.15625 22.507844,14.81986 19.120713,13 16,13 z M 25.84375,31 43,31 43,40 27.5,40 z M 49,31 l 13,0 0,9 -13,0 z M 68,31 86.21875,31 84.125,40 68,40 z M 28.625,46 43,46 43,55 30.28125,55 z M 49,46 l 13,0 0,9 -13,0 z m 19,0 14.71875,0 -1.28125,5.40625 c -0.562427,2.043 -1.076994,2.6757 -1.59375,3 C 79.316019,54.73755 78.164679,55 76,55 l -8,0 z M 40,75 c -4.935029,0 -9,4.065 -9,9 0,4.935 4.064971,9 9,9 4.935029,0 9,-4.065 9,-9 0,-4.935 -4.064971,-9 -9,-9 z m 32,0 c -4.935028,0 -9,4.065 -9,9 0,4.935 4.064972,9 9,9 4.935029,0 9,-4.065 9,-9 0,-4.935 -4.064971,-9 -9,-9 z m -32,6 c 1.692389,0 3,1.3076 3,3 0,1.6924 -1.307611,3 -3,3 -1.692389,0 -3,-1.3076 -3,-3 0,-1.6924 1.307611,-3 3,-3 z m 32,0 c 1.692389,0 3,1.3076 3,3 0,1.6924 -1.307611,3 -3,3 -1.692388,0 -3,-1.3076 -3,-3 0,-1.6924 1.307612,-3 3,-3 z" transform="translate(0,952.36218)"></path></g></svg>