<svg height='100px' width='100px'  fill="#000000" xmlns="http://www.w3.org/2000/svg" xmlns:xlink="http://www.w3.org/1999/xlink" version="1.1" x="0px" y="0px" viewBox="44 -44 600 600" style="enable-background:new 44 -44 600 600;" xml:space="preserve"><g><g><g><path d="M503.4,346h-240c-9,0-16.9-6-19.3-14.7l-60-220c-1.6-6-0.4-12.4,3.4-17.4c3.8-5,9.7-7.9,15.9-7.9h147     c6.5,0,12.6,3.2,16.4,8.5s4.7,12.1,2.5,18.3c-3.9,10.8-5.8,22.2-5.8,33.9c0,26.9,10.5,52.1,29.5,71.1c19,19,44.3,29.5,71.1,29.5     c20.6,0,40.3-6.2,57.2-17.8c7.2-5,16.7-4.7,23.6,0.6c6.9,5.3,9.6,14.5,6.6,22.7l-29.2,80.2C519.3,340.7,511.8,346,503.4,346z      M278.7,306h210.7l8.3-22.9c-10.9,2.7-22.2,4.1-33.7,4.1c-37.6,0-72.9-14.6-99.4-41.2c-26.6-26.6-41.2-61.9-41.2-99.4     c0-6.9,0.5-13.8,1.5-20.6h-95.3L278.7,306z"></path></g><g><path d="M464,287.2c-77.5,0-140.6-63.1-140.6-140.6c0-16.2,2.8-32.1,8.2-47.3C351.5,43.5,404.7,6,464,6s112.5,37.5,132.4,93.3     c1.2,3.3,2.2,6.7,3.2,10c3.3,12.1,5,24.7,5,37.3c0,46.1-22.7,89.3-60.6,115.6C520.4,278.6,492.7,287.2,464,287.2z M464,46     c-42.4,0-80.5,26.8-94.7,66.7c-3.9,10.8-5.8,22.2-5.8,33.9c0,55.5,45.1,100.6,100.6,100.6c20.6,0,40.3-6.2,57.2-17.8     c27.2-18.8,43.4-49.8,43.4-82.8c0-9.1-1.2-18-3.6-26.7c-0.7-2.4-1.4-4.8-2.3-7.2C544.5,72.8,506.4,46,464,46z"></path></g><g><path d="M203.4,126c-8.4,0-16.2-5.3-19-13.7L169,66h-65.6c-11,0-20-9-20-20s9-20,20-20h80c8.6,0,16.3,5.5,19,13.7l20,60     c3.5,10.5-2.2,21.8-12.6,25.3C207.6,125.7,205.5,126,203.4,126z"></path></g><g><path d="M563.4,426h-280c-9.2,0-17.2-6.2-19.4-15.1l-20-80c-2.7-10.7,3.8-21.6,14.6-24.3c10.7-2.7,21.6,3.8,24.3,14.6L299,386     h264.4c11,0,20,9,20,20S574.5,426,563.4,426z"></path></g><g><path d="M303.4,506c-33.1,0-60-26.9-60-60s26.9-60,60-60s60,26.9,60,60S336.5,506,303.4,506z M303.4,426c-11,0-20,9-20,20     s9,20,20,20s20-9,20-20S314.4,426,303.4,426z"></path></g><g><path d="M503.4,506c-33.1,0-60-26.9-60-60s26.9-60,60-60s60,26.9,60,60S536.5,506,503.4,506z M503.4,426c-11,0-20,9-20,20     s9,20,20,20s20-9,20-20S514.4,426,503.4,426z"></path></g><g><path d="M463.4,206c-11,0-20-9-20-20v-80c0-11,9-20,20-20s20,9,20,20v80C483.4,197,474.5,206,463.4,206z"></path></g><g><path d="M503.4,166h-80c-11,0-20-9-20-20s9-20,20-20h80c11,0,20,9,20,20S514.5,166,503.4,166z"></path></g></g></g></svg>