<svg height='100px' width='100px'  fill="#000000" xmlns="http://www.w3.org/2000/svg" viewBox="0 0 24 24" x="0px" y="0px"><title>Tavola disegno 22 copia 83 copy 16</title><path d="M20.762,7.481,19.336,8.906A8.874,8.874,0,0,1,21.429,12,9.943,9.943,0,0,1,12,18a11.156,11.156,0,0,1-1.635-.123L8.676,19.566A13.056,13.056,0,0,0,12,20a11.893,11.893,0,0,0,11.44-7.674L23.553,12l-.113-.326A10.831,10.831,0,0,0,20.762,7.481Z"></path><path d="M17.411,5.175A12.915,12.915,0,0,0,12,4,11.893,11.893,0,0,0,.56,11.674L.447,12l.113.326A11.037,11.037,0,0,0,4.787,17.8L0,22.586,1.414,24l5.175-5.175,1.544-1.544,1.848-1.848,1.508-1.508,2.436-2.436,1.508-1.508L17.774,7.64,19.213,6.2,24,1.414,22.586,0Zm-7.336,7.336A1.96,1.96,0,0,1,10,12a2,2,0,0,1,2-2,1.96,1.96,0,0,1,.511.075Zm3.944-3.944A3.947,3.947,0,0,0,12,8a4,4,0,0,0-4,4,3.947,3.947,0,0,0,.567,2.019L6.226,16.36A9.135,9.135,0,0,1,2.571,12,9.943,9.943,0,0,1,12,6a10.967,10.967,0,0,1,3.867.719Z"></path></svg>