<svg height='100px' width='100px'  fill="#000000" xmlns="http://www.w3.org/2000/svg" xmlns:xlink="http://www.w3.org/1999/xlink" version="1.0" x="0px" y="0px" viewBox="0 0 100 100" enable-background="new 0 0 100 100" xml:space="preserve"><path d="M50,23.333c-17.103,0-31.999,10.742-40,26.667c8.001,15.928,22.897,26.666,40,26.666S81.999,65.928,90,50  C81.999,34.076,67.103,23.333,50,23.333z M50,70c-12.871,0-25.026-7.582-32.405-20C24.974,37.582,37.129,30,50,30  s25.026,7.582,32.405,20C75.026,62.418,62.871,70,50,70z"></path><path d="M50,35c-8.288,0-15,6.712-15,15c0,8.285,6.712,15,15,15c8.284,0,15-6.715,15-15C65,41.712,58.284,35,50,35z M50,58.334  c-4.603,0-8.333-3.73-8.333-8.334c0-4.603,3.73-8.333,8.333-8.333s8.333,3.73,8.333,8.333C58.333,54.604,54.603,58.334,50,58.334z"></path></svg>