<svg height='100px' width='100px'  fill="#000000" xmlns="http://www.w3.org/2000/svg" viewBox="0 0 32 32" x="0px" y="0px"><title>Ecomerse</title><g data-name="chat, conversation, message, word"><path d="M9,17a3,3,0,1,1,3-3A3,3,0,0,1,9,17Zm0-4a1,1,0,1,0,1,1A1,1,0,0,0,9,13Zm7,4a3,3,0,1,1,3-3A3,3,0,0,1,16,17Zm0-4a1,1,0,1,0,1,1A1,1,0,0,0,16,13Zm7,4a3,3,0,1,1,3-3A3,3,0,0,1,23,17Zm0-4a1,1,0,1,0,1,1A1,1,0,0,0,23,13ZM6,28a1,1,0,0,1-.41-.09A1,1,0,0,1,5,27l-.1-3.77a5.72,5.72,0,0,1-2.9-5V9.72A5.73,5.73,0,0,1,7.72,4H24.28A5.73,5.73,0,0,1,30,9.72v8.56A5.73,5.73,0,0,1,24.28,24H11L6.65,27.76A1,1,0,0,1,6,28ZM7.72,6A3.73,3.73,0,0,0,4,9.72v8.56a3.72,3.72,0,0,0,2.27,3.43,1,1,0,0,1,.61.89l.06,2.27L10,22.24a1,1,0,0,1,.65-.24H24.28A3.73,3.73,0,0,0,28,18.28V9.72A3.73,3.73,0,0,0,24.28,6Z"></path></g></svg>