<svg height='100px' width='100px'  fill="#000000" xmlns="http://www.w3.org/2000/svg" viewBox="0 0 24 24" x="0px" y="0px"><title>UI</title><g data-name="Layer 2"><path d="M20.382,4H3.618A2.62,2.62,0,0,0,1,6.618V17.382A2.62,2.62,0,0,0,3.618,20H20.382A2.62,2.62,0,0,0,23,17.382V6.618A2.62,2.62,0,0,0,20.382,4ZM3.618,6H20.382A.618.618,0,0,1,21,6.618V8.382L12.044,12.86,3,7.434V6.618A.618.618,0,0,1,3.618,6ZM20.382,18H3.618A.618.618,0,0,1,3,17.382V9.766l8.485,5.091a1,1,0,0,0,.962.038L21,10.618v6.764A.618.618,0,0,1,20.382,18Z"></path></g></svg>