<svg height='100px' width='100px'  fill="#000000" xmlns:x="http://ns.adobe.com/Extensibility/1.0/" xmlns:i="http://ns.adobe.com/AdobeIllustrator/10.0/" xmlns:graph="http://ns.adobe.com/Graphs/1.0/" xmlns="http://www.w3.org/2000/svg" xmlns:xlink="http://www.w3.org/1999/xlink" version="1.1" x="0px" y="0px" viewBox="0 0 100 100" style="enable-background:new 0 0 100 100;" xml:space="preserve"><g><g i:extraneous="self"><g><path d="M78.1,21.9c-1.7-1.7-4.4-1.7-6.1,0l-22,22l-22-22c-1.7-1.7-4.4-1.7-6.1,0c-1.7,1.7-1.7,4.4,0,6.1l22,22l-22,22     c-1.7,1.7-1.7,4.4,0,6.1c0.8,0.8,1.9,1.3,3.1,1.3c1.1,0,2.2-0.4,3.1-1.3l22-22l22,22c0.8,0.8,1.9,1.3,3.1,1.3s2.2-0.4,3.1-1.3     c1.7-1.7,1.7-4.4,0-6.1l-22-22l22-22C79.8,26.3,79.8,23.6,78.1,21.9z"></path><path d="M86.3,2.5H13.7c-6.2,0-11.2,5-11.2,11.2v72.5c0,6.2,5,11.2,11.2,11.2h72.5c6.2,0,11.2-5,11.2-11.2V13.7     C97.5,7.5,92.5,2.5,86.3,2.5z M88.9,86.3c0,1.4-1.2,2.6-2.6,2.6H13.7c-1.4,0-2.6-1.2-2.6-2.6V13.7c0-1.4,1.2-2.6,2.6-2.6h72.5     c1.4,0,2.6,1.2,2.6,2.6V86.3z"></path></g></g></g></svg>