<svg height='100px' width='100px'  fill="#000000" xmlns="http://www.w3.org/2000/svg" data-name="Layer 1" viewBox="0 0 24 24" x="0px" y="0px"><title>rounded</title><path d="M17.5,15H17V11a5.00112,5.00112,0,0,0-4-4.89923V5a1,1,0,0,0-2,0V6.10077A5.00112,5.00112,0,0,0,7,11v4H6.5a1.5,1.5,0,0,0,0,3h11a1.5,1.5,0,0,0,0-3Zm0,2H6.5a.5.5,0,0,1,0-1H8V11a4,4,0,0,1,8,0v5h1.5a.5.5,0,0,1,0,1ZM10,19h4a2,2,0,0,1-4,0Zm1.5-6.5v-3a.5.5,0,0,1,1,0v3a.5.5,0,0,1-1,0Zm1.00006,2.00006a.5.5,0,1,1-.5-.5A.5.5,0,0,1,12.50006,14.50006Z"></path></svg>