<svg height='100px' width='100px'  fill="#000000" xmlns="http://www.w3.org/2000/svg" xmlns:xlink="http://www.w3.org/1999/xlink" version="1.1" x="0px" y="0px" viewBox="0 0 100 100" style="enable-background:new 0 0 100 100;" xml:space="preserve"><path d="M23.7,83.7h53.5c9.1,0,13.4-7.5,9-15.4l-27-47.9c-4.5-8-13.1-8-17.6,0L14.7,68.3C10.2,76.3,14.6,83.7,23.7,83.7z M21.2,72  l26.9-47.9c1.3-2.3,2.9-2.9,4.5,0L79.6,72c1.6,2.9,0,4.2-2.5,4.2H23.7C20.3,76.2,19.9,74.5,21.2,72z"></path><path d="M48.6,61.2h3.5c1.1,0,2-0.9,2-2V38c0-1.7-1.3-3-3-3h-1.5c-1.7,0-3,1.3-3,3v21.3C46.6,60.4,47.5,61.2,48.6,61.2z"></path><circle cx="50.4" cy="68.7" r="3.8"></circle></svg>