<svg height='100px' width='100px'  fill="#000000" xmlns:dc="http://purl.org/dc/elements/1.1/" xmlns:cc="http://creativecommons.org/ns#" xmlns:rdf="http://www.w3.org/1999/02/22-rdf-syntax-ns#" xmlns:svg="http://www.w3.org/2000/svg" xmlns="http://www.w3.org/2000/svg" xmlns:sodipodi="http://sodipodi.sourceforge.net/DTD/sodipodi-0.dtd" xmlns:inkscape="http://www.inkscape.org/namespaces/inkscape" version="1.1" x="0px" y="0px" viewBox="0 0 100 100"><g transform="translate(0,-952.36218)"><path style="color:#000000;enable-background:accumulate;" d="m 71,995.36218 c 3.866,0 7,3.134 7,7.00002 0,3.866 -3.134,7 -7,7 -3.866,0 -7,-3.134 -7,-7 0,-3.86602 3.134,-7.00002 7,-7.00002 z m -21,0 c 3.8661,0 7,3.134 7,7.00002 0,3.866 -3.1339,7 -7,7 -3.8659,0 -7,-3.134 -7,-7 0,-3.86602 3.1341,-7.00002 7,-7.00002 z m -21,0 c 3.8661,0 7,3.134 7,7.00002 0,3.866 -3.1339,7 -7,7 -3.8659,0 -7,-3.134 -7,-7 0,-3.86602 3.1341,-7.00002 7,-7.00002 z" fill="#000000" stroke="none" marker="none" visibility="visible" display="inline" overflow="visible"></path></g></svg>