<svg height='100px' width='100px'  fill="#000000" xmlns="http://www.w3.org/2000/svg" viewBox="0 0 24 24" x="0px" y="0px"><title>_</title><g><path d="M18.864,5.84314,14.7677,9.93939h3.03558a.5.5,0,0,1,0,.99994H13.56061a.49985.49985,0,0,1-.49994-.5V6.19672a.49994.49994,0,1,1,.99988,0V9.2323L18.1568,5.13605a.5.5,0,1,1,.70715.70709Zm-8.42459,7.2175H6.19675a.5.5,0,1,0,0,.99994H9.23233L5.13608,18.15683a.5.5,0,0,0,.70709.70709l4.09625-4.09625v3.03558a.49994.49994,0,1,0,.99988,0V13.56064A.49981.49981,0,0,0,10.43936,13.06064Z"></path></g></svg>