<svg height='100px' width='100px'  fill="#000000" xmlns="http://www.w3.org/2000/svg" xmlns:xlink="http://www.w3.org/1999/xlink" viewBox="0 0 214 136" version="1.1" x="0px" y="0px"><title>Menu</title><desc>Created with Sketch.</desc><g stroke="none" stroke-width="1" fill="none" fill-rule="evenodd"><g fill="#000000" fill-rule="nonzero"><path d="M12.5526316,135.134146 C5.64907221,135.134146 0.0526315789,129.537706 0.0526315789,122.634146 C0.0526315789,115.730587 5.64907221,110.134146 12.5526316,110.134146 L200.447368,110.134146 C207.350928,110.134146 212.947368,115.730587 212.947368,122.634146 C212.947368,129.537706 207.350928,135.134146 200.447368,135.134146 L12.5526316,135.134146 Z"></path><path d="M12.5526316,80.5 C5.64907221,80.5 0.0526315789,74.9035594 0.0526315789,68 C0.0526315789,61.0964406 5.64907221,55.5 12.5526316,55.5 L200.447368,55.5 C207.350928,55.5 212.947368,61.0964406 212.947368,68 C212.947368,74.9035594 207.350928,80.5 200.447368,80.5 L12.5526316,80.5 Z"></path><path d="M13.1052632,25.8658537 C6.20170379,25.8658537 0.605263158,20.269413 0.605263158,13.3658537 C0.605263158,6.46229429 6.20170379,0.865853659 13.1052632,0.865853659 L201,0.865853659 C207.903559,0.865853659 213.5,6.46229429 213.5,13.3658537 C213.5,20.269413 207.903559,25.8658537 201,25.8658537 L13.1052632,25.8658537 Z"></path></g></g></svg>