<svg height='100px' width='100px'  fill="#000000" xmlns="http://www.w3.org/2000/svg" viewBox="0 0 24 24" x="0px" y="0px"><title>plus</title><g><path d="M16,11H8A1,1,0,0,1,8,9h8a1,1,0,0,1,0,2Z"></path><path d="M12,15a1,1,0,0,1-1-1V6a1,1,0,0,1,2,0v8A1,1,0,0,1,12,15Z"></path><path d="M7,23a1,1,0,0,1-.47-.12A1,1,0,0,1,6,22V19a5,5,0,0,1-5-5V6A5,5,0,0,1,6,1H18a5,5,0,0,1,5,5v8a5,5,0,0,1-5,5H13.3L7.55,22.83A1,1,0,0,1,7,23ZM6,3A3,3,0,0,0,3,6v8a3,3,0,0,0,3,3H7a1,1,0,0,1,1,1v2.13l4.45-3A1,1,0,0,1,13,17h5a3,3,0,0,0,3-3V6a3,3,0,0,0-3-3Z"></path></g></svg>