<svg height='100px' width='100px'  fill="#000000" xmlns="http://www.w3.org/2000/svg" xmlns:xlink="http://www.w3.org/1999/xlink" version="1.1" x="0px" y="0px" viewBox="0 0 100 100" style="enable-background:new 0 0 100 100;" xml:space="preserve"><title>60 all</title><path d="M85,39.5c0-7.2-5.8-13-13-13H34.9c-2.2,0-4.3,1-5.6,2.8L16,47c-1.3,1.8-1.3,4.2,0,6l13.3,17.7c1.3,1.8,3.4,2.8,5.6,2.8H72  c7.2,0,13-5.8,13-13V39.5z M79,60.5c0,3.9-3.1,7-7,7H34.9c-0.3,0-0.6-0.1-0.8-0.4L21.2,50l12.9-17.1c0.2-0.3,0.5-0.4,0.8-0.4H72  c3.9,0,7,3.1,7,7V60.5z"></path><path d="M66.8,41.1c-1.2-1.2-3.1-1.2-4.2,0l-4.7,4.7l-4.7-4.7C51.9,40,50,40.2,49,41.5c-0.9,1.1-0.9,2.7,0,3.8l4.7,4.7L49,54.7  c-1.2,1.1-1.3,3-0.1,4.2c1.1,1.2,3,1.3,4.2,0.1c0.1,0,0.1-0.1,0.1-0.1l4.7-4.7l4.7,4.7c1.2,1.1,3.1,1.1,4.2-0.1  c1.1-1.2,1.1-2.9,0-4.1L62.1,50l4.7-4.7C68,44.1,68,42.2,66.8,41.1z"></path></svg>