<svg height='100px' width='100px'  fill="#000000" xmlns:dc="http://purl.org/dc/elements/1.1/" xmlns:cc="http://creativecommons.org/ns#" xmlns:rdf="http://www.w3.org/1999/02/22-rdf-syntax-ns#" xmlns:svg="http://www.w3.org/2000/svg" xmlns="http://www.w3.org/2000/svg" xmlns:sodipodi="http://sodipodi.sourceforge.net/DTD/sodipodi-0.dtd" xmlns:inkscape="http://www.inkscape.org/namespaces/inkscape" version="1.1" x="0px" y="0px" viewBox="0 0 100 100"><g transform="translate(0,-952.36218)"><path style="font-size:medium;font-style:normal;font-variant:normal;font-weight:normal;font-stretch:normal;text-indent:0;text-align:start;text-decoration:none;line-height:normal;letter-spacing:normal;word-spacing:normal;text-transform:none;direction:ltr;block-progression:tb;writing-mode:lr-tb;text-anchor:start;baseline-shift:baseline;opacity:1;color:#000000;fill:#000000;fill-opacity:1;stroke:none;stroke-width:6;marker:none;visibility:visible;display:inline;overflow:visible;enable-background:accumulate;font-family:Sans;-inkscape-font-specification:Sans" d="M 32.6875 20 A 3.0003 3.0003 0 0 0 30.8125 20.96875 L 5.8125 47.96875 A 3.0003 3.0003 0 0 0 5.8125 52.03125 L 30.8125 79.03125 A 3.0003 3.0003 0 0 0 33 80 L 92 80 A 3.0003 3.0003 0 0 0 95 77 L 95 23 A 3.0003 3.0003 0 0 0 92 20 L 33 20 A 3.0003 3.0003 0 0 0 32.6875 20 z M 34.28125 26 L 89 26 L 89 74 L 34.28125 74 L 12.0625 50 L 34.28125 26 z M 46.65625 34.96875 A 3.0003 3.0003 0 0 0 44.875 40.09375 L 54.75 50 L 44.875 59.875 A 3.0003 3.0003 0 1 0 49.125 64.09375 L 59 54.21875 L 68.875 64.09375 A 3.0003 3.0003 0 1 0 73.125 59.875 L 63.25 50 L 73.125 40.09375 A 3.0003 3.0003 0 0 0 70.65625 34.96875 A 3.0003 3.0003 0 0 0 68.875 35.875 L 59 45.75 L 49.125 35.875 A 3.0003 3.0003 0 0 0 46.65625 34.96875 z " transform="translate(0,952.36218)"></path></g></svg>