<svg height='100px' width='100px'  fill="#000000" xmlns="http://www.w3.org/2000/svg" xmlns:xlink="http://www.w3.org/1999/xlink" version="1.1" x="0px" y="0px" viewBox="0 0 64 64" enable-background="new 0 0 64 64" xml:space="preserve"><path fill-rule="evenodd" clip-rule="evenodd" d="M52.586,13.286l-6.872-6.872v4.388c0,0.659,0.262,1.291,0.728,1.756  c0.465,0.466,1.097,0.728,1.756,0.728H52.586z M37.429,14.414v4.388c0,0.659,0.261,1.291,0.727,1.756  c0.466,0.466,1.097,0.728,1.756,0.728H44.3L37.429,14.414z M23.571,31.857h4.286c0.552,0,1-0.448,1-1s-0.448-1-1-1h-4.286  c-0.551,0-1,0.448-1,1S23.02,31.857,23.571,31.857z M23.571,38.714h8.572c0.552,0,1-0.448,1-1s-0.448-1-1-1h-8.572  c-0.551,0-1,0.448-1,1S23.02,38.714,23.571,38.714z M23.571,45.571h8.572c0.552,0,1-0.448,1-1c0-0.551-0.448-1-1-1h-8.572  c-0.551,0-1,0.449-1,1C22.571,45.123,23.02,45.571,23.571,45.571z M43.714,5H21.479c-1.764,0-3.193,1.43-3.193,3.193V11h18.143  h0.012c0.298,0.004,0.567,0.165,0.695,0.293c10.285,10.286,0,0,10.285,10.286c0.199,0.199,0.293,0.352,0.293,0.694v0.013V51h3.093  c0.847,0,1.659-0.336,2.258-0.935S54,48.654,54,47.807V15.286h-5.802c-1.189,0-2.33-0.473-3.171-1.313  c-0.84-0.841-1.313-1.982-1.313-3.171V5z M35.429,13H13.193C11.43,13,10,14.43,10,16.193c0,9.091,0,30.523,0,39.614  C10,57.57,11.43,59,13.193,59c7.256,0,22.072,0,29.328,0c0.847,0,1.659-0.336,2.258-0.935s0.935-1.411,0.935-2.258V23.286h-5.802  c-1.189,0-2.329-0.473-3.17-1.313c-0.841-0.841-1.313-1.982-1.313-3.171V13z M44.714,3h0.013c0.239,0.003,0.464,0.062,0.694,0.293  c10.286,10.286,0,0,10.286,10.286c0.216,0.216,0.289,0.389,0.293,0.694v0.013c0,0,0,23.693,0,33.521  c0,1.377-0.547,2.698-1.521,3.672S52.184,53,50.807,53h-3.093v2.807c0,1.377-0.547,2.698-1.521,3.672S43.898,61,42.521,61  c-7.256,0-22.072,0-29.328,0C10.325,61,8,58.675,8,55.807c0-9.091,0-30.523,0-39.614C8,13.325,10.325,11,13.193,11h3.093V8.193  C16.286,5.325,18.611,3,21.479,3H44.714z"></path></svg>