<svg height='100px' width='100px'  fill="#000000" xmlns="http://www.w3.org/2000/svg" xmlns:xlink="http://www.w3.org/1999/xlink" xmlns:serif="http://www.serif.com/" viewBox="0 0 44 44" version="1.1" xml:space="preserve" style="" x="0px" y="0px" fill-rule="evenodd" clip-rule="evenodd" stroke-linejoin="round" stroke-miterlimit="2"><g transform="matrix(1,0,0,1,-180,-840)"><g transform="matrix(1,0,0,1,180,840)"><rect x="0" y="0" width="44" height="44" style="" fill="none"></rect><g transform="matrix(1,0,0,1,-180,-840)"><g><path d="M202,844C211.934,844 220,852.066 220,862C220,866.642 218.239,870.876 215.349,874.07C212.054,877.711 207.292,880 202,880C192.066,880 184,871.934 184,862C184,852.066 192.066,844 202,844ZM202,848C209.727,848 216,854.273 216,862C216,865.61 214.63,868.903 212.383,871.386C209.82,874.218 206.117,876 202,876C194.273,876 188,869.727 188,862C188,854.273 194.273,848 202,848ZM194,864L194,860L210,860L210,864L194,864Z"></path></g></g></g></g></svg>