<svg height='100px' width='100px'  fill="#000000" xmlns:dc="http://purl.org/dc/elements/1.1/" xmlns:cc="http://creativecommons.org/ns#" xmlns:rdf="http://www.w3.org/1999/02/22-rdf-syntax-ns#" xmlns:svg="http://www.w3.org/2000/svg" xmlns="http://www.w3.org/2000/svg" xmlns:sodipodi="http://sodipodi.sourceforge.net/DTD/sodipodi-0.dtd" xmlns:inkscape="http://www.inkscape.org/namespaces/inkscape" version="1.1" x="0px" y="0px" viewBox="0 0 100 100"><g transform="translate(0,-952.36218)"><path style="font-size:medium;font-style:normal;font-variant:normal;font-weight:normal;font-stretch:normal;text-indent:0;text-align:start;text-decoration:none;line-height:normal;letter-spacing:normal;word-spacing:normal;text-transform:none;direction:ltr;block-progression:tb;writing-mode:lr-tb;text-anchor:start;baseline-shift:baseline;opacity:1;color:#000000;fill:#000000;fill-opacity:1;stroke:none;stroke-width:6;marker:none;visibility:visible;display:inline;overflow:visible;enable-background:accumulate;font-family:Sans;-inkscape-font-specification:Sans" d="m 58.00001,969.36219 c -1.6569,0 -3,1.34315 -3,3 l 0,9.0625 c -10.58394,0.17966 -22.72167,3.23149 -32.53127,11 -9.92905,7.86311 -17.20983,20.63311 -17.46875,38.93751 0,0 0,0.6445 0,1 0,1.6568 1.34315,3 3,3 1.80335,0 2.61941,-1.5683 3.49136,-2.9933 12.30529,-19.7771 31.51225,-21.0067 42.50866,-21.0067 l 1,0 0,9 c 0.01,1.0868 0.6576,2.145 1.6232,2.6438 0.9656,0.4988 2.2047,0.4162 3.0955,-0.2063 0,0 33.7542,-23.72787 34.2854,-24.20512 0.6114,-0.5492 0.9959,-1.34589 0.9959,-2.23239 0,-0.88574 -0.3839,-1.68183 -0.9943,-2.23099 -0.5314,-0.47808 -33.3906,-23.45288 -34.0024,-24.0021 -0.5311,-0.47683 -1.2333,-0.76691 -2.0033,-0.76691 z m 3,8.78125 25.8125,18.21875 -25.8125,18.18751 0,-6.1875 c -2e-4,-1.5708 -1.4293,-2.9999 -3,-3 l -4,0 c -10.10454,0 -28.45518,1.5022 -42.09377,16.6562 2.02909,-11.491 7.40745,-19.4314 14.28125,-24.87496 8.77529,-6.94941 20.16382,-9.78125 29.81252,-9.78125 l 2,0 c 1.5707,-1.6e-4 2.9998,-1.42925 3,-3 z"></path></g></svg>