<svg height='100px' width='100px'  fill="#000000" xmlns="http://www.w3.org/2000/svg" data-name="Layer 1" viewBox="0 0 100 100" x="0px" y="0px"><title>36</title><path d="M7.5,94.99976h85a2.49981,2.49981,0,0,0,2.5-2.5V23.11987a2.49868,2.49868,0,0,0-.73145-1.76709L78.6582,5.73315a2.50061,2.50061,0,0,0-1.76855-.73291H7.5a2.49981,2.49981,0,0,0-2.5,2.5V92.49976A2.49981,2.49981,0,0,0,7.5,94.99976Zm68.89648-5h-52.793v-29.501h52.793ZM33.78516,10.00024H66.21484V31.49878H33.78516ZM10,10.00024H28.78516V33.99878a2.49981,2.49981,0,0,0,2.5,2.5H68.71484a2.49981,2.49981,0,0,0,2.5-2.5V10.00024h4.63868L90,24.155V89.99976H81.39648v-32.001a2.49981,2.49981,0,0,0-2.5-2.5h-57.793a2.49981,2.49981,0,0,0-2.5,2.5v32.001H10Z"></path></svg>