<svg height='100px' width='100px'  fill="#000000" xmlns="http://www.w3.org/2000/svg" viewBox="0 0 19 19" x="0px" y="0px"><path d="M14.849821,20.8215188 C14.8942255,20.9005228 14.9674637,20.9593176 15.0542227,20.985604 C15.2398922,21.0418585 15.4359623,20.9370104 15.4983466,20.7325136 L20.9709347,4.9695978 C21.051423,4.70398701 20.9791314,4.41564074 20.7828523,4.21940225 C20.5865402,4.02313072 20.2981179,3.95083612 20.0513816,4.02514607 L4.26757568,9.50172984 C4.16179393,9.53418193 4.08852958,9.59304104 4.04416509,9.67213065 C3.94931496,9.84122223 4.00954895,10.0552173 4.17875579,10.1500993 L8.79615739,12.7392851 L14.2045856,9.9895488 C14.3759479,9.90242529 14.5787044,9.90276703 14.7497721,9.99046769 C15.0443656,10.141496 15.1607337,10.5027156 15.0096876,10.7972743 L12.245459,16.1878648 L14.849821,20.8215188 Z M3.94838879,8.55510098 L19.7428104,3.07525454 C20.361154,2.88798579 21.0323911,3.056235 21.4892629,3.51301231 C21.9461483,3.96980325 22.1144239,4.64099656 21.9209102,5.2782193 L16.4483221,21.0411352 C16.2320846,21.7547172 15.4781976,22.1578569 14.764499,21.9416191 C14.4310561,21.840592 14.1495656,21.6146146 13.9788742,21.3109221 L11.2693556,16.4901744 C11.1708533,16.3149203 11.1667825,16.1019613 11.2585149,15.9230716 L13.5578901,11.4390033 L9.05863082,13.7265027 C8.88021928,13.8172102 8.66830084,13.8128976 8.49372822,13.7150068 L3.69007366,11.0213805 C3.03962796,10.6566462 2.80801412,9.83378475 3.17280399,9.18346522 C3.34161728,8.88251777 3.6192019,8.6577565 3.94838879,8.55510098 Z" transform="translate(-3 -3)"></path></svg>