<svg height='100px' width='100px'  fill="#000000" xmlns="http://www.w3.org/2000/svg" data-name="Layer 37" viewBox="0 0 32 32" x="0px" y="0px"><title>Music_UI_button</title><path d="M30.974,25.772L30.181,22.4A18.6,18.6,0,0,0,13,8.029V7.456a2.427,2.427,0,0,0-1.409-2.192,2.593,2.593,0,0,0-2.771.311L1.914,11.122a2.39,2.39,0,0,0,0,3.759L8.82,20.429a2.6,2.6,0,0,0,2.771.311A2.427,2.427,0,0,0,13,18.548V18h0.217a16.652,16.652,0,0,1,11.156,4.281l4.958,4.461A1,1,0,0,0,30.974,25.772ZM25.711,20.8A18.647,18.647,0,0,0,13.217,16H12a1,1,0,0,0-1,1v1.547a0.435,0.435,0,0,1-.273.389,0.618,0.618,0,0,1-.654-0.066L3.166,13.323a0.394,0.394,0,0,1,0-.643l6.906-5.547a0.616,0.616,0,0,1,.654-0.066A0.435,0.435,0,0,1,11,7.456V9a1,1,0,0,0,1,1A16.612,16.612,0,0,1,28.233,22.857L28.3,23.122Z"></path></svg>