<svg height='100px' width='100px'  xmlns:dc="http://purl.org/dc/elements/1.1/" xmlns:cc="http://creativecommons.org/ns#" xmlns:rdf="http://www.w3.org/1999/02/22-rdf-syntax-ns#" xmlns:svg="http://www.w3.org/2000/svg" xmlns="http://www.w3.org/2000/svg" xmlns:sodipodi="http://sodipodi.sourceforge.net/DTD/sodipodi-0.dtd" xmlns:inkscape="http://www.inkscape.org/namespaces/inkscape" fill="#000000" version="1.1" x="0px" y="0px" viewBox="0 0 100 100"><path style="font-size:medium;font-style:normal;font-variant:normal;font-weight:normal;font-stretch:normal;text-indent:0;text-align:start;text-decoration:none;line-height:normal;letter-spacing:normal;word-spacing:normal;text-transform:none;direction:ltr;block-progression:tb;writing-mode:lr-tb;text-anchor:start;baseline-shift:baseline;opacity:1;color:#000000;fill:#000000;fill-opacity:1;stroke:none;stroke-width:4.00000047999999970;marker:none;visibility:visible;display:inline;overflow:visible;enable-background:accumulate;font-family:Sans;-inkscape-font-specification:Sans" d="M 12 16 C 8.7105943 16 6 18.710594 6 22 L 6 64 C 6 67.289406 8.7105943 70 12 70 L 54 70 A 2.0002002 2.0002002 0 1 0 54 66 L 12 66 C 10.857406 66 10 65.142594 10 64 L 10 55.875 L 28.875 43.4375 L 41.75 53.5625 A 2.0002002 2.0002002 0 0 0 44.0625 53.6875 L 53.84375 47.46875 L 64 56.0625 C 61.503018 59.023361 60 62.839515 60 67 C 60 76.365151 67.634849 84 77 84 C 86.36515 84 94 76.365151 94 67 C 94 58.664467 87.934214 51.712769 80 50.28125 L 80 22 C 80 18.710594 77.289406 16 74 16 L 12 16 z M 12 20 L 74 20 C 75.142594 20 76 20.857406 76 22 L 76 50.0625 C 72.628525 50.26264 69.503244 51.419967 66.9375 53.3125 L 55.28125 43.46875 A 2.0002002 2.0002002 0 0 0 52.9375 43.3125 L 43.125 49.5625 L 30.25 39.4375 A 2.0002002 2.0002002 0 0 0 28.9375 39 A 2.0002002 2.0002002 0 0 0 27.90625 39.34375 L 10 51.09375 L 10 22 C 10 20.857406 10.857406 20 12 20 z M 47 23 C 42.053128 23 38 27.053127 38 32 C 38 36.946873 42.053128 41 47 41 C 51.946873 41 56 36.946873 56 32 C 56 27.053127 51.946873 23 47 23 z M 47 27 C 49.785112 27 52 29.214887 52 32 C 52 34.785113 49.785112 37 47 37 C 44.214889 37 42 34.785113 42 32 C 42 29.214887 44.214889 27 47 27 z M 77 54 C 84.203392 54 90 59.796608 90 67 C 90 74.203393 84.203392 80 77 80 C 69.796608 80 64 74.203393 64 67 C 64 59.796608 69.796608 54 77 54 z M 76.78125 57.96875 A 2.0002002 2.0002002 0 0 0 75 60 L 75 65 L 70 65 A 2.0002002 2.0002002 0 0 0 69.8125 65 A 2.0021961 2.0021961 0 1 0 70 69 L 75 69 L 75 74 A 2.0002002 2.0002002 0 1 0 79 74 L 79 69 L 84 69 A 2.0002002 2.0002002 0 1 0 84 65 L 79 65 L 79 60 A 2.0002002 2.0002002 0 0 0 76.96875 57.96875 A 2.0002002 2.0002002 0 0 0 76.78125 57.96875 z "></path></svg>