<svg height='100px' width='100px'  fill="#000000" xmlns="http://www.w3.org/2000/svg" viewBox="0 0 32 32" x="0px" y="0px"><title>Artboard 22</title><g data-name="22-collection"><path d="M7.59,7.59V32H32V7.59ZM30.37,9.22v13.1L25.9,17.83,21,22.66l-7-7.33L9.22,20.86V9.22ZM9.22,30.37v-7l4.84-5.6L21,25l4.89-4.85,4.48,4.5v5.74Z"></path><path d="M22.24,17.36A3.26,3.26,0,1,0,19,14.1,3.26,3.26,0,0,0,22.24,17.36Zm0-4.89a1.63,1.63,0,1,1-1.63,1.63A1.63,1.63,0,0,1,22.24,12.47Z"></path><polygon points="1.63 1.63 22.78 1.63 22.78 2.71 24.41 2.71 24.41 0 0 0 0 24.41 2.71 24.41 2.71 22.78 1.63 22.78 1.63 1.63"></polygon><polygon points="5.42 5.42 26.58 5.42 26.58 6.51 28.2 6.51 28.2 3.8 3.8 3.8 3.8 28.2 6.51 28.2 6.51 26.58 5.42 26.58 5.42 5.42"></polygon></g></svg>