<svg height='100px' width='100px'  fill="#000000" xmlns="http://www.w3.org/2000/svg" xmlns:xlink="http://www.w3.org/1999/xlink" version="1.1" x="0px" y="0px" viewBox="0 0 1024 1024" style="enable-background:new 0 0 1024 1024;" xml:space="preserve"><g><path d="M552.7,859.4H173.6c-23.2,0-42-18.9-42-42.1v-695c0-23.2,18.8-42.1,42-42.1h445.6c13.4,0,26,5.2,35.5,14.8l156.6,156.6   c9.5,9.5,14.8,22.1,14.8,35.5v309h-40v-309c0-2.8-1.1-5.3-3-7.3L626.5,123.2c-1.9-1.9-4.6-3-7.3-3H173.6c-1.1,0-2,1-2,2.1v695   c0,1.2,0.9,2.1,2,2.1h379.1V859.4z"></path><path d="M794.9,283.6H664.8c-23.2,0-42.1-18.9-42.1-42.1V111.4h40v130.1c0,1.2,0.9,2.1,2.1,2.1h130.1V283.6z"></path><path d="M358.4,442.1c-38.3,0-69.4-31.1-69.4-69.4c0-38.3,31.1-69.4,69.4-69.4s69.4,31.1,69.4,69.4   C427.8,411,396.7,442.1,358.4,442.1z M358.4,343.3c-16.2,0-29.4,13.2-29.4,29.4s13.2,29.4,29.4,29.4s29.4-13.2,29.4-29.4   S374.6,343.3,358.4,343.3z"></path><polygon points="552.1,745.1 244.7,745.1 244.7,624.1 340.4,529.2 415.9,604.2 603.5,417.6 712.8,525.9 712.8,605.2 672.8,605.2    672.8,542.5 603.5,474 415.9,660.6 340.4,585.6 284.7,640.7 284.7,705.1 552.1,705.1  "></polygon><path d="M625.5,944H522V841l253.6-254.4c8-8,18.5-12.5,29.5-12.6c11.3-0.2,21.9,4.2,29.9,12.2l45.3,45   c16.5,16.5,16.3,42.6-0.5,59.3l0,0L625.5,944z M562,904h46.9l242.6-241.8c0.4-0.4,1.5-1.7,0.5-2.7l-45.3-45   c-1.2-1.2-2.6,0.1-2.9,0.4L562,857.6V904z"></path><rect x="724.2" y="668.5" transform="matrix(0.7076 0.7066 -0.7066 0.7076 713.8978 -348.112)" width="106.7" height="40"></rect></g></svg>