<svg height='100px' width='100px'  fill="#000000" xmlns="http://www.w3.org/2000/svg" data-name="Layer 1" viewBox="0 0 100 100" x="0px" y="0px"><title>Artboard 21</title><path d="M52.25,83.83H26a1,1,0,0,1-1-1v-65a1,1,0,0,1,1-1H55a1,1,0,0,1,1,1v21a2,2,0,0,0,2,2H79a1,1,0,0,1,1,1V53.12a2,2,0,0,0,2,2h1a2,2,0,0,0,2-2v-15a2,2,0,0,0-.58-1.42L60.12,12.44a2,2,0,0,0-1.41-.58H22a2,2,0,0,0-2,2v73a2,2,0,0,0,2,2H52.25a2,2,0,0,0,2-2v-1A2,2,0,0,0,52.25,83.83Zm8.74-61a1,1,0,0,1,1.7-.71l12,12A1,1,0,0,1,74,35.85H62a1,1,0,0,1-1-1Z"></path><path d="M86.17,69.33H73.67V56.83a2,2,0,0,0-2-2h-1a2,2,0,0,0-2,2v12.5H56.17a2,2,0,0,0-2,2v1a2,2,0,0,0,2,2h12.5v12.5a2,2,0,0,0,2,2h1a2,2,0,0,0,2-2V74.33h12.5a2,2,0,0,0,2-2v-1A2,2,0,0,0,86.17,69.33Z"></path></svg>