<svg height='100px' width='100px'  fill="#000000" xmlns:dc="http://purl.org/dc/elements/1.1/" xmlns:cc="http://creativecommons.org/ns#" xmlns:rdf="http://www.w3.org/1999/02/22-rdf-syntax-ns#" xmlns:svg="http://www.w3.org/2000/svg" xmlns="http://www.w3.org/2000/svg" xmlns:sodipodi="http://sodipodi.sourceforge.net/DTD/sodipodi-0.dtd" xmlns:inkscape="http://www.inkscape.org/namespaces/inkscape" viewBox="0 0 32 32.000001" version="1.1" x="0px" y="0px"><g transform="translate(0,-1020.3622)"><path style="color:#000000;font-style:normal;font-variant:normal;font-weight:normal;font-stretch:normal;font-size:medium;line-height:normal;font-family:sans-serif;text-indent:0;text-align:start;text-decoration:none;text-decoration-line:none;text-decoration-style:solid;text-decoration-color:#000000;letter-spacing:normal;word-spacing:normal;text-transform:none;direction:ltr;block-progression:tb;writing-mode:lr-tb;baseline-shift:baseline;text-anchor:start;white-space:normal;clip-rule:nonzero;display:inline;overflow:visible;visibility:visible;opacity:1;isolation:auto;mix-blend-mode:normal;color-interpolation:sRGB;color-interpolation-filters:linearRGB;solid-color:#000000;solid-opacity:1;fill:#000000;fill-opacity:1;fill-rule:nonzero;stroke:none;stroke-width:0.99999994;stroke-linecap:round;stroke-linejoin:round;stroke-miterlimit:4;stroke-dasharray:none;stroke-dashoffset:0;stroke-opacity:1;color-rendering:auto;image-rendering:auto;shape-rendering:auto;text-rendering:auto;enable-background:accumulate" d="M 12.5 6 A 0.50004997 0.50004997 0 0 0 12.472656 6.0019531 A 0.50004997 0.50004997 0 0 0 12.425781 6.0058594 A 0.50004997 0.50004997 0 0 0 12.388672 6.0136719 A 0.50004997 0.50004997 0 0 0 12.365234 6.0175781 A 0.50004997 0.50004997 0 0 0 12.351562 6.0214844 A 0.50004997 0.50004997 0 0 0 12.326172 6.03125 A 0.50004997 0.50004997 0 0 0 12.287109 6.0488281 A 0.50004997 0.50004997 0 0 0 12.273438 6.0546875 A 0.50004997 0.50004997 0 0 0 12.240234 6.0722656 A 0.50004997 0.50004997 0 0 0 12.234375 6.0761719 A 0.50004997 0.50004997 0 0 0 12.195312 6.1035156 A 0.50004997 0.50004997 0 0 0 12.173828 6.1210938 A 0.50004997 0.50004997 0 0 0 12.148438 6.1425781 A 0.50004997 0.50004997 0 0 0 12.126953 6.1679688 A 0.50004997 0.50004997 0 0 0 12.123047 6.171875 A 0.50004997 0.50004997 0 0 0 12.109375 6.1894531 A 0.50004997 0.50004997 0 0 0 12.082031 6.2265625 A 0.50004997 0.50004997 0 0 0 12.078125 6.2324219 A 0.50004997 0.50004997 0 0 0 12.066406 6.25 L 5.0664062 18.335938 A 0.50004997 0.50004997 0 0 0 5.0664062 18.835938 L 9.0664062 25.763672 A 0.50004997 0.50004997 0 0 0 9.6152344 26 L 23.419922 26 A 0.50004997 0.50004997 0 0 0 23.851562 25.751953 L 27.931641 18.751953 A 0.50004997 0.50004997 0 0 0 27.980469 18.630859 A 0.50004997 0.50004997 0 0 0 27.986328 18.611328 A 0.50004997 0.50004997 0 0 0 27.970703 18.335938 A 0.50004997 0.50004997 0 0 0 27.964844 18.318359 A 0.50004997 0.50004997 0 0 0 27.953125 18.289062 A 0.50004997 0.50004997 0 0 0 27.951172 18.285156 A 0.50004997 0.50004997 0 0 0 27.931641 18.25 L 27.919922 18.228516 A 0.50004997 0.50004997 0 0 0 27.916016 18.222656 L 20.949219 6.25 A 0.50004997 0.50004997 0 0 0 20.517578 6 L 12.523438 6 L 12.5 6 z M 13.371094 7 L 20.228516 7 L 26.630859 18 L 19.787109 18 L 13.371094 7 z M 12.5 7.5 C 14.481921 10.9324 15.815492 13.242278 15.902344 13.392578 L 13.191406 18.099609 A 0.50004997 0.50004997 0 0 0 12.996094 18.4375 L 9.5 24.511719 L 6.078125 18.585938 L 12.5 7.5 z M 16.503906 14.355469 L 18.628906 18 L 14.404297 18 L 16.503906 14.355469 z M 13.828125 19 L 26.630859 19 L 23.132812 25 L 10.373047 25 L 13.828125 19 z " transform="translate(0,1020.3622)"></path></g></svg>