<svg height='100px' width='100px'  fill="#000000" xmlns="http://www.w3.org/2000/svg" xmlns:xlink="http://www.w3.org/1999/xlink" version="1.1" x="0px" y="0px" viewBox="0 0 32 32" enable-background="new 0 0 32 32" xml:space="preserve"><path d="M29,6H7C4.8,6,4,7.79,4,9v18c0,2.2,1.79,3,3,3h22c2.2,0,3-1.79,3-3V9C32,6.8,30.21,6,29,6z M6,9.01C6.01,8.55,6.19,8,7,8  h21.99C29.45,8.01,30,8.19,30,9v7c-3.03,0-4.52,1.8-5.83,3.39C22.97,20.85,22.02,22,20,22c-1.17,0-1.97-0.6-2.9-1.3  C16.04,19.9,14.83,19,13,19s-3.04,0.9-4.1,1.7C7.97,21.4,7.17,22,6,22V9.01z M30,26.99C29.99,27.45,29.81,28,29,28H7.01  C6.55,27.99,6,27.81,6,27v-3c1.83,0,3.04-0.9,4.1-1.7c0.93-0.7,1.73-1.3,2.9-1.3s1.97,0.6,2.9,1.3c1.06,0.8,2.27,1.7,4.1,1.7  c2.96,0,4.42-1.78,5.72-3.34C26.89,19.23,27.91,18,30,18V26.99z M1,23c-0.552,0-1-0.447-1-1V5c0-1.206,0.799-3,3-3h21  c0.553,0,1,0.448,1,1s-0.447,1-1,1H3C2.195,4,2.012,4.55,2,5.012V22C2,22.553,1.552,23,1,23z M11,16c-1.654,0-3-1.346-3-3  s1.346-3,3-3s3,1.346,3,3S12.654,16,11,16z M11,12c-0.551,0-1,0.449-1,1s0.449,1,1,1s1-0.449,1-1S11.551,12,11,12z"></path></svg>