<svg height='100px' width='100px'  fill="#000000" xmlns="http://www.w3.org/2000/svg" viewBox="0 0 108 108" x="0px" y="0px"><g data-name="Layer 50"><path d="M97.83,10.17a14.29,14.29,0,0,0-20.16,0L72.9,15,68.35,19.5H19a13,13,0,0,0-13,13V89a13,13,0,0,0,13,13H75.5a13,13,0,0,0,13-13V39.65l4.55-4.55,4.78-4.77A14.29,14.29,0,0,0,97.83,10.17ZM82.5,89a7,7,0,0,1-7,7H19a7,7,0,0,1-7-7V32.5a7,7,0,0,1,7-7H62.35L31.47,56.38A2.85,2.85,0,0,0,31,57a1.4,1.4,0,0,0-.09.17,3.18,3.18,0,0,0-.23.58s0,.06,0,.1L25.89,78.51a3,3,0,0,0,2.93,3.67,3.05,3.05,0,0,0,.67-.07l20.68-4.78s.07,0,.1,0a3.18,3.18,0,0,0,.58-.23L51,77a2.85,2.85,0,0,0,.6-.45L82.5,45.65ZM35.3,64.45l8.25,8.25L32.82,75.18Zm14.2,5.72L37.83,58.5,75,21.31,86.69,33ZM93.58,26.08l-2.65,2.66L79.26,17.07l2.66-2.65A8.24,8.24,0,0,1,93.58,26.08Z"></path></g></svg>