<svg height='100px' width='100px'  fill="#000000" xmlns="http://www.w3.org/2000/svg" data-name="Layer 1" viewBox="0 0 100 100" x="0px" y="0px"><title>Artboard 27</title><path d="M64,23a17,17,0,0,0-14,7.37A17,17,0,0,0,19,40a28.87,28.87,0,0,0,5.27,16.84c3.85,5.41,11.2,13.25,24.39,19.85l1.34.67,1.34-.67c13.19-6.6,20.55-14.43,24.39-19.85A28.87,28.87,0,0,0,81,40,17,17,0,0,0,64,23Zm6.84,30.36C67.52,58,61.24,64.75,50,70.63,38.76,64.75,32.48,58,29.16,53.36A22.9,22.9,0,0,1,25,40a11,11,0,0,1,22,0h6a11,11,0,0,1,22,0A22.9,22.9,0,0,1,70.84,53.36Z"></path></svg>