<svg height='100px' width='100px'  fill="#000000" xmlns="http://www.w3.org/2000/svg" xmlns:xlink="http://www.w3.org/1999/xlink" version="1.1" x="0px" y="0px" viewBox="0 0 32 32" style="enable-background:new 0 0 32 32;" xml:space="preserve"><g><path d="M25,19c-2.449,0-4.557,1.477-5.488,3.585l-7.125-3.958C12.775,17.832,13,16.943,13,16c0-1.455-0.521-2.79-1.385-3.83   l6.028-3.768C18.496,9.943,20.118,11,22,11c2.757,0,5-2.243,5-5s-2.243-5-5-5s-5,2.243-5,5c0,0.143,0.03,0.279,0.042,0.419   l-7.035,4.397C9.122,10.3,8.096,10,7,10c-3.309,0-6,2.691-6,6s2.691,6,6,6c1.642,0,3.131-0.664,4.216-1.737l7.805,4.336   C19.011,24.732,19,24.865,19,25c0,3.309,2.691,6,6,6s6-2.691,6-6S28.309,19,25,19z M22,3c1.654,0,3,1.346,3,3s-1.346,3-3,3   s-3-1.346-3-3S20.346,3,22,3z M7,20c-2.206,0-4-1.794-4-4s1.794-4,4-4s4,1.794,4,4S9.206,20,7,20z M25,29c-2.206,0-4-1.794-4-4   s1.794-4,4-4s4,1.794,4,4S27.206,29,25,29z"></path></g></svg>